<?xml version="1.0" encoding="UTF-8" standalone="no"?>
<svg xmlns:ffdec="https://www.free-decompiler.com/flash" xmlns:xlink="http://www.w3.org/1999/xlink" ffdec:objectType="shape" height="87.5px" width="119.0px" xmlns="http://www.w3.org/2000/svg">
  <g transform="matrix(1.0, 0.0, 0.0, 1.0, 58.5, 42.0)">
    <path d="M57.5 -40.5 L58.5 -40.5 Q58.9 -40.5 59.2 -40.2 L59.5 -39.5 59.5 43.5 59.2 44.2 Q58.9 44.5 58.5 44.5 L-56.5 44.5 -57.2 44.2 -57.5 43.5 -57.5 41.5 -57.0 41.5 -57.0 43.5 -56.85 43.85 -56.5 44.0 58.5 44.0 58.85 43.85 59.0 43.5 59.0 -39.5 58.85 -39.85 58.5 -40.0 57.5 -40.0 57.5 -40.5" fill="#000000" fill-opacity="0.32156864" fill-rule="evenodd" stroke="none"/>
    <path d="M57.5 -40.0 L58.5 -40.0 58.85 -39.85 59.0 -39.5 59.0 43.5 58.85 43.85 58.5 44.0 -56.5 44.0 -56.85 43.85 -57.0 43.5 -57.0 41.5 57.5 41.5 57.5 -40.0" fill="#000000" fill-opacity="0.43137255" fill-rule="evenodd" stroke="none"/>
    <path d="M57.5 -41.0 L58.5 -41.0 Q59.1 -41.0 59.55 -40.55 L60.0 -39.5 60.0 43.5 59.55 44.55 Q59.1 45.0 58.5 45.0 L-56.5 45.0 Q-57.1 45.0 -57.55 44.55 L-58.0 43.5 -58.0 -39.5 -57.55 -40.55 -57.5 -40.6 -57.5 41.5 -57.5 43.5 -57.2 44.2 -56.5 44.5 58.5 44.5 Q58.9 44.5 59.2 44.2 L59.5 43.5 59.5 -39.5 59.2 -40.2 Q58.9 -40.5 58.5 -40.5 L57.5 -40.5 57.5 -41.0" fill="#000000" fill-opacity="0.21568628" fill-rule="evenodd" stroke="none"/>
    <path d="M57.5 -41.5 L58.5 -41.5 Q59.35 -41.5 59.95 -40.9 60.5 -40.35 60.5 -39.5 L60.5 43.5 Q60.5 44.35 59.95 44.95 59.35 45.5 58.5 45.5 L-56.5 45.5 Q-57.35 45.5 -57.9 44.95 -58.5 44.35 -58.5 43.5 L-58.5 -39.5 Q-58.5 -40.35 -57.9 -40.9 L-57.5 -41.25 -57.5 -40.6 -57.55 -40.55 -58.0 -39.5 -58.0 43.5 -57.55 44.55 Q-57.1 45.0 -56.5 45.0 L58.5 45.0 Q59.1 45.0 59.55 44.55 L60.0 43.5 60.0 -39.5 59.55 -40.55 Q59.1 -41.0 58.5 -41.0 L57.5 -41.0 57.5 -41.5" fill="#000000" fill-opacity="0.105882354" fill-rule="evenodd" stroke="none"/>
    <path d="M57.5 -41.5 L57.5 -41.0 57.5 -40.5 57.5 -40.0 57.5 41.5 -57.0 41.5 -57.5 41.5 -57.5 -40.6 -57.5 -41.25 -57.5 -41.5 -56.5 -41.5" fill="none" stroke="#333333" stroke-linecap="round" stroke-linejoin="round" stroke-width="1.0"/>
  </g>
</svg>
