<?xml version="1.0" encoding="UTF-8" standalone="no"?>
<svg xmlns:ffdec="https://www.free-decompiler.com/flash" xmlns:xlink="http://www.w3.org/1999/xlink" ffdec:objectType="shape" height="104.4px" width="104.4px" xmlns="http://www.w3.org/2000/svg">
  <g transform="matrix(1.0, 0.0, 0.0, 1.0, 52.2, 52.2)">
    <path d="M16.8 -21.65 L16.8 -51.5 Q17.3 -50.95 17.3 -50.2 L17.3 -19.65 Q17.3 -18.85 16.7 -18.25 16.1 -17.65 15.3 -17.65 L-15.25 -17.65 Q-16.1 -17.65 -16.7 -18.25 -17.3 -18.85 -17.25 -19.65 L-17.25 -50.2 Q-17.3 -50.95 -16.8 -51.5 L-16.8 -21.65 -16.75 -21.65 -16.75 -19.65 Q-16.75 -19.05 -16.3 -18.6 -15.9 -18.2 -15.25 -18.15 L15.3 -18.15 Q15.9 -18.2 16.35 -18.6 16.75 -19.05 16.8 -19.65 L16.8 -21.65 M21.65 -51.7 L19.7 -51.7 Q19.05 -51.7 18.65 -51.25 18.2 -50.8 18.2 -50.2 L18.2 -19.65 Q18.2 -19.05 18.65 -18.6 19.05 -18.2 19.7 -18.15 L50.2 -18.15 Q50.8 -18.2 51.25 -18.6 51.7 -19.05 51.7 -19.65 L51.7 -21.65 52.2 -21.65 52.2 -19.65 Q52.2 -18.85 51.65 -18.25 51.05 -17.65 50.2 -17.65 L19.7 -17.65 Q18.85 -17.65 18.25 -18.25 17.65 -18.85 17.7 -19.65 L17.7 -50.2 Q17.65 -51.05 18.25 -51.6 18.85 -52.2 19.7 -52.2 L21.65 -52.2 21.65 -51.7 M21.65 -16.75 L19.7 -16.75 Q19.05 -16.75 18.65 -16.3 18.2 -15.9 18.2 -15.25 L18.2 15.3 Q18.2 15.9 18.65 16.35 19.05 16.75 19.7 16.8 L21.65 16.8 51.55 16.8 Q50.95 17.3 50.2 17.3 L19.7 17.3 Q18.85 17.3 18.25 16.7 17.65 16.1 17.7 15.3 L17.7 -15.25 Q17.65 -16.1 18.25 -16.7 18.85 -17.3 19.7 -17.25 L50.2 -17.25 Q50.95 -17.3 51.55 -16.8 L21.65 -16.8 21.65 -16.75 M16.6 -16.8 L-16.6 -16.8 Q-16.05 -17.3 -15.25 -17.25 L15.3 -17.25 Q16.05 -17.3 16.6 -16.8 M17.3 -15.25 L17.3 15.3 Q17.3 16.05 16.8 16.6 L16.8 -16.6 Q17.3 -16.05 17.3 -15.25 M51.7 21.65 L51.7 19.7 Q51.7 19.05 51.25 18.65 50.8 18.2 50.2 18.2 L19.7 18.2 Q19.05 18.2 18.65 18.65 18.2 19.05 18.2 19.7 L18.2 50.2 Q18.2 50.8 18.65 51.25 19.05 51.7 19.7 51.7 L21.65 51.7 21.65 52.2 19.7 52.2 Q18.85 52.2 18.25 51.65 17.65 51.05 17.7 50.2 L17.7 19.7 Q17.65 18.85 18.25 18.25 18.85 17.65 19.7 17.7 L50.2 17.7 Q51.05 17.65 51.65 18.25 52.2 18.85 52.2 19.7 L52.2 21.65 51.7 21.65 M-16.75 21.65 L-16.8 21.65 -16.8 51.55 Q-17.3 50.95 -17.25 50.2 L-17.25 19.7 Q-17.3 18.85 -16.7 18.25 -16.1 17.65 -15.25 17.7 L15.3 17.7 Q16.1 17.65 16.7 18.25 17.3 18.85 17.3 19.7 L17.3 50.2 Q17.3 50.95 16.8 51.55 L16.8 21.65 16.8 19.7 Q16.75 19.05 16.35 18.65 15.9 18.2 15.3 18.2 L-15.25 18.2 Q-15.9 18.2 -16.3 18.65 -16.75 19.05 -16.75 19.7 L-16.75 21.65 M15.3 17.3 L-15.25 17.3 Q-16.05 17.3 -16.6 16.8 L16.6 16.8 Q16.05 17.3 15.3 17.3 M-51.7 -21.65 L-51.7 -19.65 Q-51.7 -19.05 -51.25 -18.6 -50.8 -18.2 -50.2 -18.15 L-19.65 -18.15 Q-19.05 -18.2 -18.6 -18.6 -18.2 -19.05 -18.15 -19.65 L-18.15 -50.2 Q-18.2 -50.8 -18.6 -51.25 -19.05 -51.7 -19.65 -51.7 L-21.65 -51.7 -21.65 -52.2 -19.65 -52.2 Q-18.85 -52.2 -18.25 -51.6 -17.65 -51.05 -17.65 -50.2 L-17.65 -19.65 Q-17.65 -18.85 -18.25 -18.25 -18.85 -17.65 -19.65 -17.65 L-50.2 -17.65 Q-51.05 -17.65 -51.6 -18.25 -52.2 -18.85 -52.2 -19.65 L-52.2 -21.65 -51.7 -21.65 M-21.65 -16.75 L-21.65 -16.8 -51.5 -16.8 Q-50.95 -17.3 -50.2 -17.25 L-19.65 -17.25 Q-18.85 -17.3 -18.25 -16.7 -17.65 -16.1 -17.65 -15.25 L-17.65 15.3 Q-17.65 16.1 -18.25 16.7 -18.85 17.3 -19.65 17.3 L-50.2 17.3 Q-50.95 17.3 -51.5 16.8 L-21.65 16.8 -19.65 16.8 Q-19.05 16.75 -18.6 16.35 -18.2 15.9 -18.15 15.3 L-18.15 -15.25 Q-18.2 -15.9 -18.6 -16.3 -19.05 -16.75 -19.65 -16.75 L-21.65 -16.75 M-16.8 -16.6 L-16.8 16.6 Q-17.3 16.05 -17.25 15.3 L-17.25 -15.25 Q-17.3 -16.05 -16.8 -16.6 M-51.7 21.65 L-52.2 21.65 -52.2 19.7 Q-52.2 18.85 -51.6 18.25 -51.05 17.65 -50.2 17.7 L-19.65 17.7 Q-18.85 17.65 -18.25 18.25 -17.65 18.85 -17.65 19.7 L-17.65 50.2 Q-17.65 51.05 -18.25 51.65 -18.85 52.2 -19.65 52.2 L-21.65 52.2 -21.65 51.7 -19.65 51.7 Q-19.05 51.7 -18.6 51.25 -18.2 50.8 -18.15 50.2 L-18.15 19.7 Q-18.2 19.05 -18.6 18.65 -19.05 18.2 -19.65 18.2 L-50.2 18.2 Q-50.8 18.2 -51.25 18.65 -51.7 19.05 -51.7 19.7 L-51.7 21.65" fill="#000000" fill-opacity="0.1254902" fill-rule="evenodd" stroke="none"/>
    <path d="M-16.25 -21.65 L-15.75 -21.65 -15.75 -19.65 -15.6 -19.3 -15.25 -19.15 15.3 -19.15 15.65 -19.3 15.8 -19.65 15.8 -21.65 16.3 -21.65 16.3 -19.65 16.0 -18.95 Q15.7 -18.7 15.3 -18.65 L-15.25 -18.65 Q-15.7 -18.7 -15.95 -18.95 L-16.25 -19.65 -16.25 -21.65 M51.2 -21.65 L51.2 -19.65 50.9 -18.95 50.2 -18.65 19.7 -18.65 Q19.25 -18.7 19.0 -18.95 18.7 -19.25 18.7 -19.65 L18.7 -50.2 Q18.7 -50.6 19.0 -50.9 19.25 -51.2 19.7 -51.2 L21.65 -51.2 21.65 -50.7 19.7 -50.7 Q19.45 -50.7 19.35 -50.55 L19.2 -50.2 19.2 -19.65 Q19.2 -19.45 19.35 -19.3 19.45 -19.2 19.7 -19.15 L50.2 -19.15 50.55 -19.3 50.7 -19.65 50.7 -21.65 51.2 -21.65 M21.65 -15.75 L19.7 -15.75 Q19.45 -15.75 19.35 -15.6 19.2 -15.5 19.2 -15.25 L19.2 15.3 19.35 15.65 19.7 15.8 21.65 15.8 21.65 16.3 19.7 16.3 Q19.25 16.25 19.0 16.0 18.7 15.7 18.7 15.3 L18.7 -15.25 Q18.7 -15.7 19.0 -15.95 19.25 -16.25 19.7 -16.25 L21.65 -16.25 21.65 -15.75 M50.7 21.65 L50.7 19.7 50.55 19.35 50.2 19.2 19.7 19.2 Q19.45 19.2 19.35 19.35 19.2 19.45 19.2 19.7 L19.2 50.2 19.35 50.55 Q19.45 50.7 19.7 50.7 L21.65 50.7 21.65 51.2 19.7 51.2 Q19.25 51.2 19.0 50.9 18.7 50.6 18.7 50.2 L18.7 19.7 Q18.7 19.25 19.0 19.0 19.25 18.7 19.7 18.7 L50.2 18.7 Q50.6 18.7 50.9 19.0 L51.2 19.7 51.2 21.65 50.7 21.65 M16.3 21.65 L15.8 21.65 15.8 19.7 15.65 19.35 Q15.5 19.2 15.3 19.2 L-15.25 19.2 Q-15.5 19.2 -15.6 19.35 L-15.75 19.7 -15.75 21.65 -16.25 21.65 -16.25 19.7 -15.95 19.0 Q-15.7 18.7 -15.25 18.7 L15.3 18.7 Q15.7 18.7 16.0 19.0 L16.3 19.7 16.3 21.65 M-21.65 -51.2 L-19.65 -51.2 -18.95 -50.9 -18.65 -50.2 -18.65 -19.65 -18.95 -18.95 -19.65 -18.65 -50.2 -18.65 -50.9 -18.95 -51.2 -19.65 -51.2 -21.65 -50.7 -21.65 -50.7 -19.65 -50.55 -19.3 -50.2 -19.15 -19.65 -19.15 -19.3 -19.3 -19.15 -19.65 -19.15 -50.2 -19.3 -50.55 -19.65 -50.7 -21.65 -50.7 -21.65 -51.2 M-21.65 16.3 L-21.65 15.8 -19.65 15.8 -19.3 15.65 -19.15 15.3 -19.15 -15.25 -19.3 -15.6 -19.65 -15.75 -21.65 -15.75 -21.65 -16.25 -19.65 -16.25 -18.95 -15.95 -18.65 -15.25 -18.65 15.3 -18.95 16.0 -19.65 16.3 -21.65 16.3 M-21.65 51.2 L-21.65 50.7 -19.65 50.7 -19.3 50.55 -19.15 50.2 -19.15 19.7 -19.3 19.35 Q-19.45 19.2 -19.65 19.2 L-50.2 19.2 -50.55 19.35 -50.7 19.7 -50.7 21.65 -51.2 21.65 -51.2 19.7 -50.9 19.0 Q-50.6 18.7 -50.2 18.7 L-19.65 18.7 Q-19.25 18.7 -18.95 19.0 L-18.65 19.7 -18.65 50.2 -18.95 50.9 -19.65 51.2 -21.65 51.2" fill="#000000" fill-opacity="0.3764706" fill-rule="evenodd" stroke="none"/>
    <path d="M-15.75 -21.65 L15.8 -21.65 15.8 -19.65 15.65 -19.3 15.3 -19.15 -15.25 -19.15 -15.6 -19.3 -15.75 -19.65 -15.75 -21.65 M50.7 -21.65 L50.7 -19.65 50.55 -19.3 50.2 -19.15 19.7 -19.15 Q19.45 -19.2 19.35 -19.3 19.2 -19.45 19.2 -19.65 L19.2 -50.2 19.35 -50.55 Q19.45 -50.7 19.7 -50.7 L21.65 -50.7 21.65 -21.65 50.7 -21.65 M21.65 15.8 L19.7 15.8 19.35 15.65 19.2 15.3 19.2 -15.25 Q19.2 -15.5 19.35 -15.6 19.45 -15.75 19.7 -15.75 L21.65 -15.75 21.65 15.8 M21.65 50.7 L19.7 50.7 Q19.45 50.7 19.35 50.55 L19.2 50.2 19.2 19.7 Q19.2 19.45 19.35 19.35 19.45 19.2 19.7 19.2 L50.2 19.2 50.55 19.35 50.7 19.7 50.7 21.65 21.65 21.65 21.65 50.7 M15.8 21.65 L-15.75 21.65 -15.75 19.7 -15.6 19.35 Q-15.5 19.2 -15.25 19.2 L15.3 19.2 Q15.5 19.2 15.65 19.35 L15.8 19.7 15.8 21.65 M-21.65 -50.7 L-19.65 -50.7 -19.3 -50.55 -19.15 -50.2 -19.15 -19.65 -19.3 -19.3 -19.65 -19.15 -50.2 -19.15 -50.55 -19.3 -50.7 -19.65 -50.7 -21.65 -21.65 -21.65 -21.65 -50.7 M-21.65 15.8 L-21.65 -15.75 -19.65 -15.75 -19.3 -15.6 -19.15 -15.25 -19.15 15.3 -19.3 15.65 -19.65 15.8 -21.65 15.8 M-21.65 50.7 L-21.65 21.65 -50.7 21.65 -50.7 19.7 -50.55 19.35 -50.2 19.2 -19.65 19.2 Q-19.45 19.2 -19.3 19.35 L-19.15 19.7 -19.15 50.2 -19.3 50.55 -19.65 50.7 -21.65 50.7" fill="#000000" fill-opacity="0.5019608" fill-rule="evenodd" stroke="none"/>
    <path d="M-16.75 -21.65 L-16.25 -21.65 -16.25 -19.65 -15.95 -18.95 Q-15.7 -18.7 -15.25 -18.65 L15.3 -18.65 Q15.7 -18.7 16.0 -18.95 L16.3 -19.65 16.3 -21.65 16.8 -21.65 16.8 -19.65 Q16.75 -19.05 16.35 -18.6 15.9 -18.2 15.3 -18.15 L-15.25 -18.15 Q-15.9 -18.2 -16.3 -18.6 -16.75 -19.05 -16.75 -19.65 L-16.75 -21.65 M21.65 -51.2 L19.7 -51.2 Q19.25 -51.2 19.0 -50.9 18.7 -50.6 18.7 -50.2 L18.7 -19.65 Q18.7 -19.25 19.0 -18.95 19.25 -18.7 19.7 -18.65 L50.2 -18.65 50.9 -18.95 51.2 -19.65 51.2 -21.65 51.7 -21.65 51.7 -19.65 Q51.7 -19.05 51.25 -18.6 50.8 -18.2 50.2 -18.15 L19.7 -18.15 Q19.05 -18.2 18.65 -18.6 18.2 -19.05 18.2 -19.65 L18.2 -50.2 Q18.2 -50.8 18.65 -51.25 19.05 -51.7 19.7 -51.7 L21.65 -51.7 21.65 -51.2 M21.65 -16.25 L19.7 -16.25 Q19.25 -16.25 19.0 -15.95 18.7 -15.7 18.7 -15.25 L18.7 15.3 Q18.7 15.7 19.0 16.0 19.25 16.25 19.7 16.3 L21.65 16.3 21.65 16.8 19.7 16.8 Q19.05 16.75 18.65 16.35 18.2 15.9 18.2 15.3 L18.2 -15.25 Q18.2 -15.9 18.65 -16.3 19.05 -16.75 19.7 -16.75 L21.65 -16.75 21.65 -16.25 M51.2 21.65 L51.2 19.7 50.9 19.0 Q50.6 18.7 50.2 18.7 L19.7 18.7 Q19.25 18.7 19.0 19.0 18.7 19.25 18.7 19.7 L18.7 50.2 Q18.7 50.6 19.0 50.9 19.25 51.2 19.7 51.2 L21.65 51.2 21.65 51.7 19.7 51.7 Q19.05 51.7 18.65 51.25 18.2 50.8 18.2 50.2 L18.2 19.7 Q18.2 19.05 18.65 18.65 19.05 18.2 19.7 18.2 L50.2 18.2 Q50.8 18.2 51.25 18.65 51.7 19.05 51.7 19.7 L51.7 21.65 51.2 21.65 M16.8 21.65 L16.3 21.65 16.3 19.7 16.0 19.0 Q15.7 18.7 15.3 18.7 L-15.25 18.7 Q-15.7 18.7 -15.95 19.0 L-16.25 19.7 -16.25 21.65 -16.75 21.65 -16.75 19.7 Q-16.75 19.05 -16.3 18.65 -15.9 18.2 -15.25 18.2 L15.3 18.2 Q15.9 18.2 16.35 18.65 16.75 19.05 16.8 19.7 L16.8 21.65 M-21.65 -51.2 L-21.65 -51.7 -19.65 -51.7 Q-19.05 -51.7 -18.6 -51.25 -18.2 -50.8 -18.15 -50.2 L-18.15 -19.65 Q-18.2 -19.05 -18.6 -18.6 -19.05 -18.2 -19.65 -18.15 L-50.2 -18.15 Q-50.8 -18.2 -51.25 -18.6 -51.7 -19.05 -51.7 -19.65 L-51.7 -21.65 -51.2 -21.65 -51.2 -19.65 -50.9 -18.95 -50.2 -18.65 -19.65 -18.65 -18.95 -18.95 -18.65 -19.65 -18.65 -50.2 -18.95 -50.9 -19.65 -51.2 -21.65 -51.2 M-21.65 16.8 L-21.65 16.3 -19.65 16.3 -18.95 16.0 -18.65 15.3 -18.65 -15.25 -18.95 -15.95 -19.65 -16.25 -21.65 -16.25 -21.65 -16.75 -19.65 -16.75 Q-19.05 -16.75 -18.6 -16.3 -18.2 -15.9 -18.15 -15.25 L-18.15 15.3 Q-18.2 15.9 -18.6 16.35 -19.05 16.75 -19.65 16.8 L-21.65 16.8 M-21.65 51.7 L-21.65 51.2 -19.65 51.2 -18.95 50.9 -18.65 50.2 -18.65 19.7 -18.95 19.0 Q-19.25 18.7 -19.65 18.7 L-50.2 18.7 Q-50.6 18.7 -50.9 19.0 L-51.2 19.7 -51.2 21.65 -51.7 21.65 -51.7 19.7 Q-51.7 19.05 -51.25 18.65 -50.8 18.2 -50.2 18.2 L-19.65 18.2 Q-19.05 18.2 -18.6 18.65 -18.2 19.05 -18.15 19.7 L-18.15 50.2 Q-18.2 50.8 -18.6 51.25 -19.05 51.7 -19.65 51.7 L-21.65 51.7" fill="#000000" fill-opacity="0.2509804" fill-rule="evenodd" stroke="none"/>
  </g>
</svg>
