<?xml version="1.0" encoding="UTF-8" standalone="no"?>
<svg xmlns:ffdec="https://www.free-decompiler.com/flash" xmlns:xlink="http://www.w3.org/1999/xlink" ffdec:objectType="shape" height="37.6px" width="37.6px" xmlns="http://www.w3.org/2000/svg">
  <g transform="matrix(1.0, 0.0, 0.0, 1.0, 18.8, 18.8)">
    <path d="M18.8 -16.8 L18.8 16.8 Q18.8 17.65 18.25 18.25 17.65 18.8 16.8 18.8 L-16.8 18.8 Q-17.65 18.8 -18.2 18.25 -18.8 17.65 -18.8 16.8 L-18.8 -16.8 Q-18.8 -17.65 -18.2 -18.2 -17.65 -18.8 -16.8 -18.8 L16.8 -18.8 Q17.65 -18.8 18.25 -18.2 18.8 -17.65 18.8 -16.8 M18.3 -16.8 L17.85 -17.85 16.8 -18.3 -16.8 -18.3 -17.85 -17.85 -18.3 -16.8 -18.3 16.8 -17.85 17.85 -16.8 18.3 16.8 18.3 17.85 17.85 18.3 16.8 18.3 -16.8" fill="#ff9900" fill-opacity="0.23529412" fill-rule="evenodd" stroke="none"/>
    <path d="M18.3 -16.8 L18.3 16.8 17.85 17.85 16.8 18.3 -16.8 18.3 -17.85 17.85 -18.3 16.8 -18.3 -16.8 -17.85 -17.85 -16.8 -18.3 16.8 -18.3 17.85 -17.85 18.3 -16.8 M17.8 -16.8 L17.5 -17.5 16.8 -17.8 -16.8 -17.8 -17.5 -17.5 -17.8 -16.8 -17.8 16.8 -17.5 17.5 -16.8 17.8 16.8 17.8 17.5 17.5 17.8 16.8 17.8 -16.8" fill="#ff9900" fill-opacity="0.4745098" fill-rule="evenodd" stroke="none"/>
    <path d="M17.8 -16.8 L17.8 16.8 17.5 17.5 16.8 17.8 -16.8 17.8 -17.5 17.5 -17.8 16.8 -17.8 -16.8 -17.5 -17.5 -16.8 -17.8 16.8 -17.8 17.5 -17.5 17.8 -16.8 M17.3 -16.8 L17.15 -17.15 16.8 -17.3 -16.8 -17.3 -17.15 -17.15 -17.3 -16.8 -17.3 16.8 -17.15 17.15 -16.8 17.3 16.8 17.3 17.15 17.15 17.3 16.8 17.3 -16.8" fill="#ff9900" fill-opacity="0.7137255" fill-rule="evenodd" stroke="none"/>
    <path d="M17.3 -16.8 L17.3 16.8 17.15 17.15 16.8 17.3 -16.8 17.3 -17.15 17.15 -17.3 16.8 -17.3 -16.8 -17.15 -17.15 -16.8 -17.3 16.8 -17.3 17.15 -17.15 17.3 -16.8" fill="#ffcc00" fill-opacity="0.9529412" fill-rule="evenodd" stroke="none"/>
  </g>
</svg>
