<?xml version="1.0" encoding="UTF-8" standalone="no"?>
<svg xmlns:ffdec="https://www.free-decompiler.com/flash" xmlns:xlink="http://www.w3.org/1999/xlink" ffdec:objectType="shape" height="20.8px" width="106.55px" xmlns="http://www.w3.org/2000/svg">
  <g transform="matrix(1.0, 0.0, 0.0, 1.0, 53.95, 45.1)">
    <path d="M24.35 -27.65 Q24.25 -28.45 27.35 -30.3 L27.8 -30.55 30.5 -31.85 Q36.7 -34.6 42.85 -38.7 42.8 -39.45 43.05 -40.25 43.55 -42.2 45.3 -43.2 47.05 -44.2 49.05 -43.7 L49.65 -43.5 46.65 -41.75 46.45 -38.2 49.6 -36.6 52.6 -38.3 52.5 -37.7 Q51.95 -35.75 50.2 -34.75 48.45 -33.75 46.5 -34.25 45.7 -34.45 45.05 -34.85 36.05 -29.85 28.65 -24.9 L26.4 -24.7 Q25.35 -25.05 24.85 -25.9 24.35 -26.75 24.35 -27.65 M26.7 -27.5 Q26.55 -27.1 26.8 -26.75 L27.35 -26.35 28.1 -26.4 28.55 -27.0 28.45 -27.7 27.85 -28.15 27.15 -28.05 26.7 -27.5 M10.75 -41.3 L9.0 -41.3 9.0 -42.5 10.75 -42.5 10.75 -41.3 M6.8 -41.45 L-2.7 -41.45 -2.7 -43.6 6.8 -43.6 6.8 -41.45 M5.85 -32.8 Q5.8 -30.9 4.5 -29.55 3.15 -28.2 1.25 -28.2 -0.65 -28.2 -2.0 -29.55 -3.35 -30.9 -3.35 -32.8 -3.35 -34.7 -2.0 -36.05 -0.65 -37.4 1.25 -37.35 3.15 -37.4 4.5 -36.05 5.8 -34.7 5.85 -32.8 M1.25 -26.7 Q3.75 -26.75 5.55 -28.5 7.3 -30.25 7.3 -32.75 7.3 -35.25 5.55 -37.0 3.75 -38.8 1.25 -38.8 -1.25 -38.8 -3.0 -37.0 -4.8 -35.25 -4.75 -32.75 -4.8 -30.25 -3.0 -28.5 -1.25 -26.75 1.25 -26.7 M12.3 -25.05 L-12.45 -25.05 -12.45 -40.45 12.3 -40.45 12.3 -25.05 M-44.65 -28.95 Q-46.6 -30.65 -53.95 -29.45 L-47.05 -42.15 Q-43.05 -45.7 -39.95 -45.0 -37.05 -44.4 -35.3 -40.9 L-42.6 -25.3 Q-42.6 -25.8 -42.9 -26.5 -43.45 -27.9 -44.65 -28.95 M-5.75 -41.45 L-10.1 -41.45 -10.1 -43.35 -5.75 -43.35 -5.75 -41.45 M-38.75 -27.2 Q-40.5 -26.75 -41.5 -25.85 L-33.8 -41.75 Q-28.05 -47.0 -22.9 -40.3 L-29.1 -24.3 -29.2 -24.35 -31.65 -25.85 Q-35.3 -28.1 -38.75 -27.2" fill="#333333" fill-rule="evenodd" stroke="none"/>
  </g>
</svg>
