<?xml version="1.0" encoding="UTF-8" standalone="no"?>
<svg xmlns:ffdec="https://www.free-decompiler.com/flash" xmlns:xlink="http://www.w3.org/1999/xlink" ffdec:objectType="shape" height="58.8px" width="104.2px" xmlns="http://www.w3.org/2000/svg">
  <g transform="matrix(1.0, 0.0, 0.0, 1.0, 51.95, 6.75)">
    <path d="M6.7 14.5 L-0.05 9.4 -7.0 14.5 -4.3 6.4 -11.1 1.35 -2.75 1.35 -0.05 -6.75 2.6 1.35 10.95 1.35 4.15 6.4 6.7 14.5" fill="#333333" fill-rule="evenodd" stroke="none"/>
    <path d="M-31.25 -6.6 Q-29.2 -6.6 -27.75 -5.2 -26.35 -3.75 -26.3 -1.65 -26.35 0.35 -27.75 1.8 -29.2 3.25 -31.25 3.25 -32.35 3.25 -33.2 2.85 L-33.15 1.8 Q-33.2 -0.45 -34.75 -2.0 L-36.05 -3.0 Q-35.7 -4.2 -34.75 -5.2 -33.3 -6.6 -31.25 -6.6 M-45.8 -6.6 Q-43.75 -6.6 -42.3 -5.2 -41.35 -4.2 -41.0 -3.0 L-42.3 -2.0 Q-43.9 -0.45 -43.9 1.8 L-43.8 2.85 -45.8 3.25 Q-47.85 3.25 -49.3 1.8 -50.75 0.35 -50.7 -1.65 -50.75 -3.75 -49.3 -5.2 -47.85 -6.6 -45.8 -6.6 M-51.05 6.05 Q-51.05 3.8 -50.1 2.05 L-49.8 2.35 Q-48.15 4.0 -45.8 4.0 L-43.6 3.55 -42.75 5.1 -43.0 5.15 -43.15 5.3 Q-44.2 7.1 -44.2 9.55 L-44.05 11.25 -44.0 11.45 -45.85 11.7 Q-48.05 11.7 -49.25 10.75 -50.45 9.8 -50.75 8.35 L-50.9 7.7 -51.05 6.05 M-43.35 9.55 Q-43.35 7.65 -42.7 6.25 L-40.65 7.55 -38.55 7.9 -36.4 7.5 Q-35.3 7.1 -34.3 6.25 -33.7 7.65 -33.7 9.55 L-33.8 11.15 -33.75 11.1 -33.8 11.25 -33.95 11.75 Q-34.3 13.05 -35.4 13.9 -36.6 14.75 -38.6 14.75 -40.6 14.75 -41.7 13.95 L-41.7 13.9 Q-42.8 13.0 -43.05 11.75 L-43.2 11.2 -43.2 11.15 -43.2 11.1 -43.35 9.55 M-34.2 3.2 Q-34.55 4.15 -35.35 4.95 L-36.5 5.85 -38.5 6.3 -40.55 5.85 -41.7 4.95 Q-42.5 4.15 -42.8 3.2 L-43.0 2.4 -43.05 1.8 Q-43.05 -0.1 -41.7 -1.4 L-40.85 -2.1 Q-39.8 -2.75 -38.5 -2.75 -37.25 -2.75 -36.2 -2.1 L-35.35 -1.4 Q-34.0 -0.1 -34.0 1.8 L-34.0 2.45 -34.2 3.2 M-34.3 5.1 L-33.45 3.55 -31.3 4.0 Q-28.95 4.0 -27.25 2.35 L-26.95 2.05 Q-26.0 3.8 -26.0 6.05 L-26.1 7.7 -26.25 8.35 Q-26.65 9.8 -27.9 10.75 -29.15 11.7 -31.3 11.7 L-33.0 11.5 -32.95 11.3 -32.95 11.25 -32.85 9.55 Q-32.85 7.1 -33.85 5.3 L-34.0 5.15 -34.3 5.1" fill="#333333" fill-rule="evenodd" stroke="none"/>
    <path d="M-49.7 49.8 Q-51.55 46.1 -51.95 41.4 L-46.85 42.45 Q-47.2 44.75 -45.9 45.95 L-49.7 49.8 M-44.8 45.65 Q-46.35 44.55 -45.8 42.05 L-28.7 30.2 Q-23.95 38.2 -24.25 46.8 L-44.8 45.65" fill="#333333" fill-rule="evenodd" stroke="none"/>
    <path d="M48.6 49.2 L47.05 35.85 47.05 35.4 34.25 35.4 33.75 33.95 51.65 33.95 48.9 49.2 48.6 49.2 M31.85 31.45 L33.3 35.1 25.2 35.1 25.85 31.45 31.85 31.45 M48.0 51.1 L27.0 51.1 25.25 35.85 46.25 35.85 48.0 51.1" fill="#333333" fill-rule="evenodd" stroke="none"/>
    <path d="M26.35 -0.75 L39.7 -0.75 39.7 2.3 24.8 2.3 26.35 -0.75 M27.65 -3.95 L50.15 -3.95 50.15 2.3 40.55 2.3 40.55 -1.75 26.65 -1.75 27.65 -3.95 M41.2 3.1 L43.1 3.1 42.3 7.15 Q42.15 8.05 41.0 8.6 L34.75 8.6 35.15 7.1 40.65 6.95 Q41.25 6.4 41.2 3.1 M51.05 0.05 L51.05 -3.4 52.25 -3.4 52.25 0.05 51.05 0.05 M35.15 3.1 L32.15 14.2 25.3 14.2 24.6 13.1 Q27.45 8.3 27.5 3.1 L35.15 3.1 M39.5 6.7 L38.4 6.7 Q37.6 5.6 37.6 3.15 L38.8 3.15 Q38.9 5.05 39.5 6.7" fill="#333333" fill-rule="evenodd" stroke="none"/>
    <path d="M-10.4 38.2 L-9.75 36.65 -11.45 34.9 -9.35 32.8 -7.65 34.55 Q-6.9 34.05 -6.05 33.85 L-6.05 31.45 -3.1 31.45 -3.1 33.85 Q-2.25 34.05 -1.45 34.55 L0.25 32.8 2.35 34.9 0.6 36.65 1.3 38.25 3.7 38.25 3.7 41.2 1.3 41.2 0.6 42.8 2.35 44.5 0.25 46.6 -1.5 44.9 -3.1 45.55 -3.1 47.95 -6.05 47.95 -6.05 45.55 -7.65 44.9 -9.35 46.6 -11.45 44.5 -9.75 42.8 -10.4 41.15 -12.85 41.15 -12.85 38.2 -10.4 38.2 M-3.3 38.45 Q-3.85 37.95 -4.55 37.95 -5.3 37.95 -5.85 38.45 -6.35 39.0 -6.35 39.7 -6.35 40.45 -5.85 40.95 -5.3 41.5 -4.55 41.5 -3.85 41.5 -3.3 40.95 -2.8 40.45 -2.8 39.7 -2.8 39.0 -3.3 38.45 M9.5 41.45 L11.05 42.7 10.05 43.95 10.6 45.0 12.2 44.85 12.4 46.85 10.8 47.0 10.45 48.1 11.7 49.15 10.45 50.7 9.2 49.65 8.15 50.2 8.35 51.85 6.35 52.05 6.15 50.4 5.05 50.1 4.0 51.35 2.5 50.1 3.5 48.8 2.95 47.8 1.35 47.95 1.15 45.95 2.75 45.8 Q2.85 45.2 3.1 44.7 L1.85 43.65 3.1 42.1 4.35 43.15 Q4.8 42.75 5.35 42.55 L5.2 40.95 7.2 40.75 7.35 42.35 8.5 42.7 9.5 41.45 M6.65 45.2 Q6.15 45.25 5.85 45.65 5.5 46.0 5.55 46.5 5.6 47.0 6.0 47.3 6.4 47.65 6.9 47.6 L7.7 47.15 7.95 46.25 7.5 45.45 Q7.15 45.15 6.65 45.2" fill="#333333" fill-rule="evenodd" stroke="none"/>
  </g>
</svg>
