<?xml version="1.0" encoding="UTF-8" standalone="no"?>
<svg xmlns:ffdec="https://www.free-decompiler.com/flash" xmlns:xlink="http://www.w3.org/1999/xlink" ffdec:objectType="shape" height="48.5px" width="48.5px" xmlns="http://www.w3.org/2000/svg">
  <g transform="matrix(1.0, 0.0, 0.0, 1.0, -358.95, -294.45)">
    <path d="M383.2 342.45 Q373.35 342.45 366.4 335.5 359.45 328.55 359.45 318.7 359.45 308.85 366.4 301.9 373.35 294.95 383.2 294.95 393.05 294.95 400.0 301.9 406.95 308.85 406.95 318.7 406.95 328.55 400.0 335.5 393.05 342.45 383.2 342.45" fill="#ffffff" fill-rule="evenodd" stroke="none"/>
    <path d="M383.2 342.45 Q373.35 342.45 366.4 335.5 359.45 328.55 359.45 318.7 359.45 308.85 366.4 301.9 373.35 294.95 383.2 294.95 393.05 294.95 400.0 301.9 406.95 308.85 406.95 318.7 406.95 328.55 400.0 335.5 393.05 342.45 383.2 342.45 Z" fill="none" stroke="#00ccff" stroke-linecap="round" stroke-linejoin="round" stroke-width="1.0"/>
  </g>
</svg>
