<?xml version="1.0" encoding="UTF-8" standalone="no"?>
<svg xmlns:ffdec="https://www.free-decompiler.com/flash" xmlns:xlink="http://www.w3.org/1999/xlink" ffdec:objectType="shape" height="554.85px" width="832.95px" xmlns="http://www.w3.org/2000/svg">
  <g transform="matrix(1.0, 0.0, 0.0, 1.0, 414.65, 277.6)">
    <path d="M418.3 276.75 L418.3 277.25 -414.65 277.25 -414.65 276.75 418.3 276.75" fill="#000000" fill-opacity="0.0627451" fill-rule="evenodd" stroke="none"/>
    <path d="M418.3 276.75 L-414.65 276.75 -414.65 276.25 418.3 276.25 418.3 276.75" fill="#000000" fill-opacity="0.1254902" fill-rule="evenodd" stroke="none"/>
    <path d="M-414.65 276.25 L-414.65 275.75 418.3 275.75 418.3 276.25 -414.65 276.25" fill="#000000" fill-opacity="0.19215687" fill-rule="evenodd" stroke="none"/>
    <path d="M-414.65 275.75 L-414.65 275.25 418.3 275.25 418.3 275.75 -414.65 275.75" fill="#000000" fill-opacity="0.25490198" fill-rule="evenodd" stroke="none"/>
    <path d="M-414.65 275.25 L-414.65 274.75 418.3 274.75 418.3 275.25 -414.65 275.25" fill="#000000" fill-opacity="0.31764707" fill-rule="evenodd" stroke="none"/>
    <path d="M-414.65 274.75 L-414.65 274.25 418.3 274.25 418.3 274.75 -414.65 274.75" fill="#000000" fill-opacity="0.38431373" fill-rule="evenodd" stroke="none"/>
    <path d="M-414.65 274.25 L-414.65 273.75 418.3 273.75 418.3 274.25 -414.65 274.25" fill="#000000" fill-opacity="0.44705883" fill-rule="evenodd" stroke="none"/>
    <path d="M-414.65 273.75 L-414.65 242.35 418.3 242.35 418.3 273.75 -414.65 273.75" fill="#000000" fill-opacity="0.5137255" fill-rule="evenodd" stroke="none"/>
    <path d="M-414.65 -277.1 L-414.65 -277.6 418.3 -277.6 418.3 -277.1 -414.65 -277.1" fill="#000000" fill-opacity="0.0627451" fill-rule="evenodd" stroke="none"/>
    <path d="M-414.65 -276.6 L-414.65 -277.1 418.3 -277.1 418.3 -276.6 -414.65 -276.6" fill="#000000" fill-opacity="0.1254902" fill-rule="evenodd" stroke="none"/>
    <path d="M-414.65 -276.1 L-414.65 -276.6 418.3 -276.6 418.3 -276.1 -414.65 -276.1" fill="#000000" fill-opacity="0.19215687" fill-rule="evenodd" stroke="none"/>
    <path d="M-414.65 -275.6 L-414.65 -276.1 418.3 -276.1 418.3 -275.6 -414.65 -275.6" fill="#000000" fill-opacity="0.25490198" fill-rule="evenodd" stroke="none"/>
    <path d="M-414.65 -275.1 L-414.65 -275.6 418.3 -275.6 418.3 -275.1 -414.65 -275.1" fill="#000000" fill-opacity="0.31764707" fill-rule="evenodd" stroke="none"/>
    <path d="M-414.65 -274.6 L-414.65 -275.1 418.3 -275.1 418.3 -274.6 -414.65 -274.6" fill="#000000" fill-opacity="0.38431373" fill-rule="evenodd" stroke="none"/>
    <path d="M418.3 -274.1 L-414.65 -274.1 -414.65 -274.6 418.3 -274.6 418.3 -274.1" fill="#000000" fill-opacity="0.44705883" fill-rule="evenodd" stroke="none"/>
    <path d="M418.3 -274.1 L418.3 -242.7 -414.65 -242.7 -414.65 -274.1 418.3 -274.1" fill="#000000" fill-opacity="0.5137255" fill-rule="evenodd" stroke="none"/>
    <path d="M409.5 273.05 L-409.45 273.05 -409.45 -273.05 409.5 -273.05 409.5 273.05" fill="#333333" fill-rule="evenodd" stroke="none"/>
  </g>
</svg>
