<?xml version="1.0" encoding="UTF-8" standalone="no"?>
<svg xmlns:ffdec="https://www.free-decompiler.com/flash" xmlns:xlink="http://www.w3.org/1999/xlink" ffdec:objectType="shape" height="30.65px" width="63.2px" xmlns="http://www.w3.org/2000/svg">
  <g transform="matrix(1.0, 0.0, 0.0, 1.0, 33.05, 25.1)">
    <path d="M23.6 -22.35 L25.75 -22.75 25.7 -22.2 25.7 -21.6 25.75 -20.8 26.1 -19.7 27.3 -20.25 29.4 -21.15 30.15 -19.2 27.9 -18.7 Q26.6 -18.25 25.6 -17.55 24.55 -16.9 24.5 -16.25 24.6 -15.7 25.25 -15.55 L26.45 -15.45 28.05 -15.6 30.05 -15.95 30.0 -15.65 30.0 -15.2 30.0 -14.05 27.95 -13.8 26.45 -13.75 25.15 -13.85 Q24.25 -13.95 23.4 -14.45 22.6 -14.95 22.5 -16.1 22.55 -17.15 23.2 -17.8 L24.65 -18.9 24.15 -19.7 24.0 -20.3 23.8 -21.8 23.6 -22.35 M18.5 -22.35 L19.45 -20.95 18.0 -20.15 16.2 -18.9 15.6 -19.6 15.25 -20.0 16.0 -20.55 14.0 -20.45 13.2 -20.45 12.7 -20.5 12.65 -22.25 13.95 -22.1 15.3 -22.05 18.5 -22.35 M16.0 -15.85 L17.85 -16.0 19.65 -16.35 19.75 -15.4 19.9 -14.45 17.8 -14.15 16.0 -14.05 Q11.8 -14.05 11.85 -16.15 11.85 -16.9 12.35 -17.45 L13.45 -18.5 14.65 -17.6 14.1 -17.1 13.7 -16.45 Q13.75 -16.15 13.9 -16.1 L15.05 -15.9 16.0 -15.85 M22.15 -3.8 L22.15 -1.9 16.25 -1.9 16.25 -3.8 22.15 -3.8 M15.95 -4.3 L16.15 -4.15 Q16.15 -3.95 15.8 -3.95 L15.2 -2.05 15.35 -2.0 15.55 -1.8 15.3 -1.6 15.3 5.45 13.4 5.45 13.4 1.0 12.95 1.45 12.0 -0.2 Q13.3 -2.0 13.7 -3.35 L14.05 -4.8 15.95 -4.3 M22.6 4.95 L15.7 4.95 15.7 3.0 22.6 3.0 22.6 4.95 M-30.95 -24.35 L-28.75 -24.3 Q-28.45 -24.3 -28.45 -24.1 L-28.7 -23.85 -28.7 -22.2 -26.7 -22.2 -26.7 -24.45 -24.4 -24.35 -24.15 -24.2 -24.4 -23.95 -24.4 -22.2 -22.4 -22.2 -22.4 -20.05 -24.4 -20.05 Q-24.4 -18.85 -24.7 -17.7 -25.0 -16.5 -25.85 -15.45 L-26.7 -14.65 Q-27.3 -14.1 -28.35 -13.6 L-29.35 -14.65 -30.1 -15.2 Q-28.75 -15.75 -28.05 -16.4 L-27.25 -17.4 -26.8 -18.6 -26.7 -20.05 -28.7 -20.05 -28.7 -17.5 -30.95 -17.5 -30.95 -20.05 -33.05 -20.05 -33.05 -22.2 -30.95 -22.2 -30.95 -24.35 M2.25 -24.25 L3.9 -23.3 5.3 -22.3 4.55 -21.3 4.0 -20.45 Q2.65 -21.7 1.0 -22.45 L2.25 -24.25 M-1.25 -20.1 Q-1.35 -15.2 -5.85 -13.6 -6.35 -14.55 -7.4 -15.35 -4.85 -16.15 -4.15 -17.55 -3.45 -18.95 -3.55 -20.45 L-3.55 -24.45 -1.25 -24.35 -0.95 -24.2 -1.25 -23.9 -1.25 -20.1 M10.85 -21.45 L11.45 -20.7 Q10.1 -18.6 7.85 -16.8 5.6 -15.05 2.8 -14.0 L2.55 -13.7 2.35 -13.9 1.2 -16.1 Q3.9 -16.65 6.3 -18.45 8.75 -20.25 10.1 -22.65 L10.85 -21.45 M-21.1 -23.25 L-13.65 -23.25 -13.3 -23.3 -13.9 -24.05 -14.2 -24.4 -13.25 -25.1 -12.6 -24.45 -12.1 -23.8 -12.45 -23.55 -12.75 -23.35 -11.35 -22.35 -11.55 -21.9 -11.95 -20.95 -13.15 -18.25 Q-13.85 -16.95 -15.05 -15.8 -16.3 -14.65 -18.4 -13.5 L-19.15 -14.4 -20.05 -15.4 Q-18.95 -15.7 -17.9 -16.4 -16.85 -17.05 -16.25 -17.65 L-15.15 -19.15 Q-14.55 -20.1 -14.25 -21.2 L-21.1 -21.2 -21.1 -23.25 M-10.15 -23.7 L-10.65 -23.35 -11.15 -23.0 -12.2 -24.4 -11.2 -25.05 -10.6 -24.35 -10.15 -23.7 M-6.9 -24.25 L-6.6 -24.1 -6.9 -23.8 -6.9 -18.0 -9.15 -18.0 -9.15 -24.3 -6.9 -24.25 M-10.35 -3.45 L-10.2 -3.25 -10.55 -3.1 -11.2 -2.1 -12.0 -1.1 -7.4 -1.1 -8.5 -2.75 -9.9 -2.75 -9.9 -4.5 -7.05 -4.5 Q-6.55 -2.8 -5.65 -1.95 L-4.2 -0.85 -4.85 0.05 -5.2 0.8 -5.5 0.6 -6.15 0.15 -6.3 2.9 -6.5 4.3 -6.9 4.95 -7.6 5.35 -9.55 5.5 Q-9.65 4.25 -10.15 3.45 L-9.0 3.55 Q-8.4 3.6 -8.25 3.15 L-8.1 2.05 -8.05 0.75 -9.7 0.75 -10.0 2.15 Q-10.35 3.1 -11.4 4.2 -12.8 5.35 -13.4 5.55 -13.95 4.55 -14.75 3.9 -13.7 3.55 -12.8 2.85 -11.9 2.2 -11.6 0.75 L-12.75 0.75 -12.75 -0.25 -13.75 0.65 -14.25 0.0 -15.15 -0.8 -13.55 -2.25 Q-12.75 -3.05 -12.05 -4.45 L-10.35 -3.45 M-24.55 -4.85 L-22.75 -4.4 -22.5 -4.2 Q-22.55 -4.0 -22.85 -4.0 L-23.65 -2.1 -23.3 -1.9 -23.55 -1.65 -23.55 2.6 -22.4 1.05 Q-21.85 0.1 -21.6 -1.15 L-23.15 -1.15 -23.15 -2.9 -21.35 -2.9 -21.3 -4.7 -19.35 -4.65 -19.05 -4.5 -19.35 -4.2 -19.35 -3.65 -19.45 -2.9 -16.1 -2.9 -16.1 -1.15 -19.7 -1.15 -20.0 -0.15 -16.45 -0.15 -16.45 1.55 -17.95 1.55 -17.95 3.55 -16.1 3.55 -16.1 5.25 -22.05 5.25 -22.05 3.8 -22.75 4.5 -23.55 3.7 -23.55 5.45 -25.4 5.45 -25.4 0.7 -25.75 1.05 -26.1 0.15 -26.65 -0.7 Q-25.85 -1.75 -25.3 -2.9 -24.75 -4.1 -24.55 -4.85 M-20.65 1.55 L-21.1 2.5 -21.85 3.55 -19.9 3.55 -19.9 1.55 -20.65 1.55 M4.5 -3.75 L4.25 -3.55 4.25 2.8 2.45 2.8 2.45 -4.0 4.3 -3.9 4.5 -3.75 M6.85 -4.55 L7.0 -4.4 6.7 -4.1 6.7 3.95 Q6.75 4.85 6.3 5.15 5.85 5.5 4.65 5.45 L3.9 5.45 3.65 4.3 3.25 3.55 4.45 3.7 4.85 3.35 4.85 -4.7 6.85 -4.55 M-2.0 -2.65 L-2.55 -2.6 -3.25 -4.15 -1.1 -4.3 1.05 -4.85 2.05 -3.45 2.05 -3.35 1.85 -3.15 1.6 -3.3 1.1 -3.15 0.45 -2.95 0.45 -1.9 2.05 -1.9 2.05 -0.25 0.65 -0.25 2.25 1.45 1.75 2.05 1.3 2.75 0.45 1.75 0.45 5.5 -1.45 5.5 -1.45 2.55 -1.95 3.35 -2.2 3.7 -2.9 3.0 -3.65 2.55 Q-2.15 1.0 -1.6 -0.25 L-3.25 -0.25 -3.25 -1.9 -1.45 -1.9 -1.45 -2.75 -2.0 -2.65" fill="#ffffff" fill-rule="evenodd" stroke="none"/>
  </g>
</svg>
