<?xml version="1.0" encoding="UTF-8" standalone="no"?>
<svg xmlns:ffdec="https://www.free-decompiler.com/flash" xmlns:xlink="http://www.w3.org/1999/xlink" ffdec:objectType="shape" height="149.0px" width="135.6px" xmlns="http://www.w3.org/2000/svg">
  <g transform="matrix(1.0, 0.0, 0.0, 1.0, 68.0, 74.7)">
    <path d="M-67.5 73.8 L67.1 73.8 M-67.5 71.8 L67.1 71.8 M-67.5 69.8 L67.1 69.8 M-67.5 67.8 L67.1 67.8 M-67.5 65.8 L67.1 65.8 M-67.5 63.8 L67.1 63.8 M-67.5 61.8 L67.1 61.8 M-67.5 59.8 L67.1 59.8 M-67.5 57.8 L67.1 57.8 M-67.5 55.8 L67.1 55.8 M-67.5 53.8 L67.1 53.8 M-67.5 51.8 L67.1 51.8 M-67.5 49.8 L67.1 49.8 M-67.5 47.8 L67.1 47.8 M-67.5 45.8 L67.1 45.8 M-67.5 43.8 L67.1 43.8 M-67.5 41.8 L67.1 41.8 M-67.5 39.8 L67.1 39.8 M-67.5 37.8 L67.1 37.8 M-67.5 35.8 L67.1 35.8 M-67.5 33.8 L67.1 33.8 M-67.5 31.8 L67.1 31.8 M-67.5 29.8 L67.1 29.8 M-67.5 27.8 L67.1 27.8 M-67.5 25.8 L67.1 25.8 M-67.5 23.8 L67.1 23.8 M-67.5 21.8 L67.1 21.8 M-67.5 19.8 L67.1 19.8 M-67.5 17.8 L67.1 17.8 M-67.5 15.8 L67.1 15.8 M-67.5 13.8 L67.1 13.8 M-67.5 11.8 L67.1 11.8 M-67.5 9.8 L67.1 9.8 M-67.5 7.8 L67.1 7.8 M-67.5 5.8 L67.1 5.8 M-67.5 3.8 L67.1 3.8 M-67.5 1.8 L67.1 1.8 M-67.5 -0.2 L67.1 -0.2 M-67.5 -2.2 L67.1 -2.2 M-67.5 -4.2 L67.1 -4.2 M-67.5 -6.2 L67.1 -6.2 M-67.5 -8.2 L67.1 -8.2 M-67.5 -10.2 L67.1 -10.2 M-67.5 -12.2 L67.1 -12.2 M-67.5 -14.2 L67.1 -14.2 M-67.5 -16.2 L67.1 -16.2 M-67.5 -18.2 L67.1 -18.2 M-67.5 -20.2 L67.1 -20.2 M-67.5 -22.2 L67.1 -22.2 M-67.5 -24.2 L67.1 -24.2 M-67.5 -26.2 L67.1 -26.2 M-67.5 -28.2 L67.1 -28.2 M-67.5 -30.2 L67.1 -30.2 M-67.5 -32.2 L67.1 -32.2 M-67.5 -34.2 L67.1 -34.2 M-67.5 -36.2 L67.1 -36.2 M-67.5 -38.2 L67.1 -38.2 M-67.5 -40.2 L67.1 -40.2 M-67.5 -42.2 L67.1 -42.2 M-67.5 -44.2 L67.1 -44.2 M-67.5 -46.2 L67.1 -46.2 M-67.5 -48.2 L67.1 -48.2 M-67.5 -50.2 L67.1 -50.2 M-67.5 -52.2 L67.1 -52.2 M-67.5 -54.2 L67.1 -54.2 M-67.5 -56.2 L67.1 -56.2 M-67.5 -58.2 L67.1 -58.2 M-67.5 -60.2 L67.1 -60.2 M-67.5 -62.2 L67.1 -62.2 M-67.5 -64.2 L67.1 -64.2 M-67.5 -66.2 L67.1 -66.2 M-67.5 -68.2 L67.1 -68.2 M-67.5 -70.2 L67.1 -70.2 M-67.5 -72.2 L67.1 -72.2 M-67.5 -74.2 L67.1 -74.2" fill="none" stroke="#333333" stroke-linecap="round" stroke-linejoin="round" stroke-opacity="0.7019608" stroke-width="1.0"/>
  </g>
</svg>
