<?xml version="1.0" encoding="UTF-8" standalone="no"?>
<svg xmlns:ffdec="https://www.free-decompiler.com/flash" xmlns:xlink="http://www.w3.org/1999/xlink" ffdec:objectType="shape" height="28.45px" width="132.0px" xmlns="http://www.w3.org/2000/svg">
  <g transform="matrix(1.0, 0.0, 0.0, 1.0, 65.75, 13.95)">
    <path d="M65.75 -11.95 Q65.75 -12.55 65.3 -13.0 64.85 -13.45 64.25 -13.45 L-63.75 -13.45 Q-64.35 -13.45 -64.8 -13.0 L-65.25 -11.95 -65.25 12.5 -64.8 13.55 Q-64.35 14.0 -63.75 14.0 L64.25 14.0 Q64.85 14.0 65.3 13.55 65.75 13.1 65.75 12.5 L65.75 -11.95 M66.25 -11.95 L66.25 12.5 Q66.25 13.35 65.7 13.95 65.1 14.5 64.25 14.5 L-63.75 14.5 Q-64.6 14.5 -65.15 13.95 -65.75 13.35 -65.75 12.5 L-65.75 -11.95 Q-65.75 -12.8 -65.15 -13.35 -64.6 -13.95 -63.75 -13.95 L64.25 -13.95 Q65.1 -13.95 65.7 -13.35 66.25 -12.8 66.25 -11.95" fill="#000000" fill-opacity="0.09803922" fill-rule="evenodd" stroke="none"/>
    <path d="M65.25 -11.95 L64.95 -12.65 64.25 -12.95 -63.75 -12.95 Q-64.15 -12.95 -64.45 -12.65 L-64.75 -11.95 -64.75 12.5 -64.45 13.2 Q-64.15 13.5 -63.75 13.5 L64.25 13.5 64.95 13.2 65.25 12.5 65.25 -11.95 M65.75 -11.95 L65.75 12.5 Q65.75 13.1 65.3 13.55 64.85 14.0 64.25 14.0 L-63.75 14.0 Q-64.35 14.0 -64.8 13.55 L-65.25 12.5 -65.25 -11.95 -64.8 -13.0 Q-64.35 -13.45 -63.75 -13.45 L64.25 -13.45 Q64.85 -13.45 65.3 -13.0 65.75 -12.55 65.75 -11.95" fill="#000000" fill-opacity="0.2" fill-rule="evenodd" stroke="none"/>
    <path d="M64.75 -11.95 L64.6 -12.3 64.25 -12.45 -63.75 -12.45 -64.1 -12.3 -64.25 -11.95 -64.25 12.5 -64.1 12.85 -63.75 13.0 64.25 13.0 64.6 12.85 64.75 12.5 64.75 -11.95 M65.25 -11.95 L65.25 12.5 64.95 13.2 64.25 13.5 -63.75 13.5 Q-64.15 13.5 -64.45 13.2 L-64.75 12.5 -64.75 -11.95 -64.45 -12.65 Q-64.15 -12.95 -63.75 -12.95 L64.25 -12.95 64.95 -12.65 65.25 -11.95" fill="#000000" fill-opacity="0.29803923" fill-rule="evenodd" stroke="none"/>
    <path d="M64.75 -11.95 L64.75 12.5 64.6 12.85 64.25 13.0 -63.75 13.0 -64.1 12.85 -64.25 12.5 -64.25 -11.95 -64.1 -12.3 -63.75 -12.45 64.25 -12.45 64.6 -12.3 64.75 -11.95" fill="#000000" fill-opacity="0.4" fill-rule="evenodd" stroke="none"/>
  </g>
</svg>
