<?xml version="1.0" encoding="UTF-8" standalone="no"?>
<svg xmlns:ffdec="https://www.free-decompiler.com/flash" xmlns:xlink="http://www.w3.org/1999/xlink" ffdec:objectType="shape" height="24.45px" width="128.0px" xmlns="http://www.w3.org/2000/svg">
  <g transform="matrix(1.0, 0.0, 0.0, 1.0, 64.0, 12.2)">
    <path d="M-62.55 -12.2 L-62.55 -10.4 -62.55 10.35 -64.0 10.35 -64.0 -12.2 -62.55 -12.2" fill="#676767" fill-rule="evenodd" stroke="none"/>
    <path d="M-62.55 -10.4 L-62.55 -12.2 62.1 -12.2 62.1 -10.4 -62.55 -10.4" fill="#606060" fill-rule="evenodd" stroke="none"/>
    <path d="M-64.0 10.35 L-62.55 10.35 62.1 10.35 62.1 -10.4 62.1 -12.2 64.0 -12.2 64.0 12.25 -64.0 12.25 -64.0 10.35" fill="#000000" fill-rule="evenodd" stroke="none"/>
    <path d="M-62.55 10.35 L-62.55 -10.4 62.1 -10.4 62.1 10.35 -62.55 10.35" fill="url(#gradient0)" fill-rule="evenodd" stroke="none"/>
  </g>
  <defs>
    <linearGradient gradientTransform="matrix(0.101, 0.0161, -0.002, 0.0125, -0.25, -0.05)" gradientUnits="userSpaceOnUse" id="gradient0" spreadMethod="pad" x1="-819.2" x2="819.2">
      <stop offset="0.0" stop-color="#ffffff"/>
      <stop offset="1.0" stop-color="#000000"/>
    </linearGradient>
  </defs>
</svg>
