<?xml version="1.0" encoding="UTF-8" standalone="no"?>
<svg xmlns:ffdec="https://www.free-decompiler.com/flash" xmlns:xlink="http://www.w3.org/1999/xlink" ffdec:objectType="shape" height="20.0px" width="486.0px" xmlns="http://www.w3.org/2000/svg">
  <g transform="matrix(1.0, 0.0, 0.0, 1.0, 249.4, 25.2)">
    <path d="M-24.35 -19.1 L-30.2 -19.3 -30.55 -17.05 -28.5 -17.3 -25.05 -18.05 -25.55 -14.95 -30.9 -14.25 -31.0 -13.3 -31.1 -12.4 Q-29.1 -12.0 -27.1 -11.05 -25.15 -10.1 -24.55 -9.6 L-25.6 -8.6 -27.25 -6.95 -29.1 -8.4 Q-30.2 -9.2 -31.35 -9.6 -31.3 -8.7 -32.15 -7.4 -33.0 -6.15 -36.35 -6.0 -38.8 -6.05 -40.2 -7.0 -41.6 -8.0 -41.45 -9.45 -41.1 -11.25 -39.1 -12.05 -37.1 -12.9 -34.45 -12.85 L-34.4 -13.35 -34.25 -14.05 -36.65 -14.1 Q-38.0 -14.15 -38.95 -14.6 -39.9 -15.0 -39.8 -16.05 -39.75 -17.0 -37.95 -18.55 L-35.7 -18.05 -36.25 -17.3 -36.0 -16.95 -33.95 -16.85 -33.75 -18.05 -33.6 -19.25 -40.25 -18.6 -39.75 -21.95 -37.75 -22.1 -35.0 -22.25 -33.1 -22.35 -32.8 -24.95 -29.2 -24.25 -28.9 -23.95 Q-29.0 -23.65 -29.3 -23.65 L-29.5 -22.85 -29.6 -22.45 -26.95 -22.45 -23.85 -22.3 -24.35 -19.1 M-21.25 -22.55 L-17.0 -22.6 -11.85 -23.0 -7.15 -23.7 -3.2 -24.55 -3.15 -21.05 Q-5.8 -21.0 -8.15 -19.75 -10.5 -18.5 -12.1 -16.65 -13.7 -14.8 -14.0 -13.05 -14.2 -11.2 -12.55 -10.3 -10.85 -9.4 -8.65 -9.35 L-9.75 -7.55 -10.8 -5.55 -13.4 -6.45 Q-15.1 -7.2 -16.4 -8.7 -17.7 -10.2 -17.45 -12.7 -16.85 -15.65 -15.1 -17.55 L-12.5 -19.9 -17.7 -19.3 -21.4 -18.6 -21.25 -22.55 M-35.75 -10.35 L-36.8 -10.25 Q-37.7 -10.15 -37.9 -9.55 -37.9 -9.05 -37.4 -8.9 L-36.55 -8.8 Q-35.0 -8.7 -34.85 -10.3 L-35.75 -10.35 M-6.35 -18.4 L-4.65 -19.55 -3.8 -18.5 -3.1 -17.35 -4.85 -16.05 -5.55 -17.3 -6.35 -18.4 M-5.45 -15.8 L-6.3 -15.25 -7.25 -14.55 -8.0 -15.8 -8.8 -16.9 -7.1 -18.05 -6.2 -16.95 -5.45 -15.8 M0.05 -12.4 Q0.4 -11.6 0.8 -11.6 L1.55 -12.15 2.15 -13.1 Q4.05 -16.2 4.85 -20.3 2.85 -19.55 1.5 -17.75 0.1 -15.95 -0.15 -14.45 -0.3 -13.2 0.05 -12.4 M-1.3 -18.75 Q0.3 -20.95 2.85 -22.45 5.35 -23.95 8.45 -24.0 12.0 -23.95 14.2 -21.8 16.35 -19.65 15.9 -15.8 L15.15 -13.3 Q14.5 -11.5 12.4 -9.3 11.3 -8.2 10.05 -7.5 8.8 -6.8 7.4 -6.25 L6.65 -7.8 5.65 -9.25 Q9.1 -10.0 10.75 -12.0 12.35 -14.05 12.55 -15.8 12.8 -17.2 12.05 -18.9 11.3 -20.6 8.45 -20.95 7.0 -15.05 4.6 -11.35 2.2 -7.6 0.4 -7.5 -0.95 -7.55 -2.3 -9.4 -3.6 -11.2 -3.3 -14.2 -2.95 -16.5 -1.3 -18.75 M18.85 -15.5 Q19.5 -19.55 21.3 -21.4 23.05 -23.3 24.85 -23.8 L27.45 -24.25 29.7 -23.85 Q31.05 -23.5 32.05 -22.5 33.1 -21.5 33.2 -19.65 L29.2 -19.65 28.75 -20.5 Q28.3 -21.0 26.95 -21.05 24.6 -20.9 23.75 -19.45 22.9 -17.95 22.7 -16.6 L24.3 -17.65 27.35 -18.15 Q29.95 -18.15 31.35 -16.75 32.7 -15.35 32.35 -12.9 32.05 -10.5 30.1 -8.75 28.2 -6.95 24.8 -6.85 L22.45 -7.2 Q21.55 -7.55 21.1 -7.9 19.15 -9.3 18.8 -11.45 18.45 -13.6 18.85 -15.5 M38.5 -18.7 L36.35 -16.55 34.7 -17.75 33.8 -18.15 Q35.75 -19.7 37.15 -21.55 L39.45 -25.1 42.4 -24.1 42.6 -23.85 Q42.5 -23.5 41.95 -23.55 L41.55 -22.85 53.55 -22.85 53.15 -19.95 47.25 -19.95 46.9 -17.75 51.0 -17.75 50.6 -15.05 46.5 -15.05 46.15 -12.5 52.9 -12.5 52.45 -9.7 45.7 -9.7 45.1 -5.6 41.8 -5.6 42.45 -9.7 33.25 -9.7 33.65 -12.5 36.85 -12.5 37.65 -17.75 43.65 -17.75 43.95 -19.95 39.6 -19.95 38.5 -18.7 M40.2 -12.5 L42.85 -12.5 43.25 -15.05 40.6 -15.05 40.2 -12.5 M22.4 -12.75 Q22.25 -11.7 22.9 -10.9 23.55 -10.05 25.1 -10.05 26.65 -10.05 27.55 -10.9 28.4 -11.7 28.6 -12.75 28.7 -14.0 27.9 -14.65 27.1 -15.3 25.9 -15.3 24.65 -15.3 23.65 -14.65 22.65 -14.0 22.4 -12.75 M57.6 -19.2 L60.4 -19.2 60.55 -20.15 57.75 -20.15 57.6 -19.2 M60.9 -22.65 L58.1 -22.65 58.0 -21.75 60.8 -21.75 60.9 -22.65 M52.6 -5.55 L55.45 -24.55 64.05 -24.55 62.95 -17.1 57.3 -17.1 55.55 -5.55 52.6 -5.55 M60.75 -10.1 L64.4 -10.1 64.5 -11.0 60.9 -11.0 60.75 -10.1 M60.3 -7.25 L57.55 -7.25 58.85 -16.1 68.05 -16.1 66.9 -8.6 68.0 -8.5 Q68.7 -8.45 68.65 -9.25 L69.85 -17.1 64.05 -17.1 65.15 -24.55 73.8 -24.55 71.35 -8.15 Q71.2 -6.6 70.3 -6.1 69.4 -5.6 67.15 -5.5 L66.8 -7.9 60.4 -7.9 60.3 -7.25 M77.5 -12.4 Q77.85 -11.6 78.25 -11.6 78.6 -11.65 79.0 -12.15 L79.6 -13.1 Q81.5 -16.2 82.3 -20.3 80.3 -19.55 78.95 -17.75 77.55 -15.95 77.3 -14.45 77.15 -13.2 77.5 -12.4 M80.3 -22.45 Q82.8 -23.95 85.9 -24.0 89.45 -23.95 91.65 -21.8 93.8 -19.65 93.35 -15.8 L92.6 -13.3 Q91.95 -11.5 89.85 -9.3 L87.5 -7.5 Q86.25 -6.8 84.85 -6.25 L84.1 -7.8 83.1 -9.25 Q86.55 -10.0 88.2 -12.0 89.8 -14.05 90.0 -15.8 90.25 -17.2 89.5 -18.9 88.75 -20.6 85.9 -20.95 84.45 -15.05 82.05 -11.35 79.65 -7.6 77.85 -7.5 76.5 -7.55 75.15 -9.4 73.85 -11.2 74.15 -14.2 74.5 -16.5 76.15 -18.75 77.75 -20.95 80.3 -22.45 M70.6 -22.65 L67.8 -22.65 67.65 -21.75 70.45 -21.75 70.6 -22.65 M67.3 -19.2 L70.05 -19.2 70.2 -20.15 67.4 -20.15 67.3 -19.2 M61.3 -13.9 L61.2 -13.0 64.8 -13.0 64.95 -13.9 61.3 -13.9 M99.2 -23.1 L99.45 -24.85 102.55 -24.7 Q103.0 -24.75 103.05 -24.45 L102.45 -24.05 102.0 -21.2 103.25 -21.2 103.0 -19.55 104.65 -22.6 105.6 -25.0 108.6 -24.35 108.85 -24.1 Q108.7 -23.8 108.2 -23.75 L107.6 -22.5 106.95 -21.35 114.5 -21.35 113.25 -13.7 112.3 -9.5 111.5 -7.5 110.3 -6.35 Q109.35 -5.75 106.6 -5.7 L106.45 -7.2 105.85 -8.8 104.3 -7.3 102.3 -5.75 101.45 -6.85 100.3 -7.75 Q101.65 -8.4 104.3 -11.0 107.0 -13.6 109.25 -18.55 L108.4 -18.55 Q107.2 -15.85 105.55 -13.6 103.9 -11.3 102.4 -10.05 L101.65 -11.0 100.65 -11.9 99.7 -5.6 96.55 -5.6 97.5 -11.75 95.15 -11.15 Q94.95 -10.65 94.6 -10.5 L94.3 -10.85 94.2 -14.05 96.25 -14.45 97.95 -14.85 98.5 -18.4 97.6 -18.4 97.2 -17.4 96.8 -16.45 94.2 -17.35 95.45 -20.3 96.2 -23.45 98.85 -23.25 99.2 -23.1 M99.15 -22.9 L98.6 -22.55 98.45 -22.1 98.25 -21.2 98.9 -21.2 99.15 -22.9 M101.2 -15.75 L103.1 -16.35 102.75 -15.1 102.45 -13.55 Q104.75 -15.8 106.15 -18.55 L105.3 -18.55 104.7 -17.65 103.5 -16.2 102.55 -16.9 Q102.15 -17.1 101.45 -17.45 L101.2 -15.75 M100.75 -12.85 L100.65 -12.0 102.35 -13.45 101.4 -13.05 100.75 -12.85 M101.5 -17.7 L102.45 -18.8 101.65 -18.8 101.5 -17.7 M117.75 -24.45 L124.15 -24.45 123.8 -22.05 117.4 -22.05 117.75 -24.45 M116.35 -15.6 L122.8 -15.6 122.45 -13.35 116.0 -13.35 116.35 -15.6 M116.8 -18.5 L123.25 -18.5 122.9 -16.3 116.45 -16.3 116.8 -18.5 M116.25 -21.45 L124.6 -21.45 124.25 -19.15 115.9 -19.15 116.25 -21.45 M110.75 -16.0 Q108.65 -11.7 106.05 -8.95 L106.85 -8.9 107.95 -8.9 Q109.05 -8.85 109.35 -10.1 L110.1 -12.65 110.75 -16.0 M117.75 -6.7 L117.55 -5.55 114.7 -5.55 115.75 -12.75 122.65 -12.75 121.65 -5.9 119.0 -5.9 119.15 -6.7 117.75 -6.7 M119.45 -8.9 L119.7 -10.6 118.3 -10.6 118.05 -8.9 119.45 -8.9 M133.6 -16.65 L135.35 -16.65 134.95 -14.05 123.35 -14.05 123.75 -16.65 125.7 -16.65 126.55 -18.5 125.15 -18.5 125.5 -21.05 127.7 -21.05 128.2 -22.05 124.95 -22.05 125.3 -24.45 135.95 -24.45 135.55 -22.05 131.35 -22.05 130.85 -20.95 134.2 -20.95 133.6 -16.65 M140.95 -22.6 L146.1 -23.0 150.8 -23.7 154.75 -24.55 154.8 -21.05 Q152.15 -21.0 149.8 -19.75 147.45 -18.5 145.85 -16.65 144.25 -14.8 143.95 -13.05 143.75 -11.2 145.4 -10.3 147.1 -9.4 149.3 -9.35 L148.2 -7.55 147.15 -5.55 144.55 -6.45 Q142.85 -7.2 141.55 -8.7 140.25 -10.2 140.5 -12.7 141.1 -15.65 142.85 -17.55 L145.45 -19.9 140.25 -19.3 136.55 -18.6 136.7 -22.55 140.95 -22.6 M130.65 -16.65 L130.9 -18.5 129.65 -18.5 128.75 -16.65 130.65 -16.65 M126.1 -6.7 L125.95 -5.55 123.0 -5.55 124.15 -13.3 134.05 -13.3 132.9 -5.55 129.95 -5.55 130.1 -6.7 126.1 -6.7 M130.5 -9.15 L130.75 -10.8 126.7 -10.8 126.45 -9.15 130.5 -9.15 M161.25 -21.5 L162.75 -24.95 165.85 -23.9 Q166.15 -23.85 166.2 -23.6 166.1 -23.3 165.65 -23.3 L164.85 -21.85 Q168.9 -22.65 170.1 -23.25 L170.15 -20.35 166.5 -19.45 163.55 -19.0 163.35 -18.5 163.2 -18.05 165.35 -18.25 Q168.25 -18.25 170.3 -16.8 172.3 -15.35 172.0 -12.4 171.4 -9.3 168.95 -7.7 166.5 -6.1 163.7 -5.55 L163.3 -6.6 162.3 -8.15 Q164.25 -8.5 166.1 -9.5 168.0 -10.45 168.4 -12.4 L168.35 -13.55 Q168.15 -14.35 167.0 -14.9 L165.05 -12.3 Q163.85 -10.85 162.45 -9.65 L162.65 -8.7 162.2 -8.4 161.25 -7.9 160.5 -7.5 159.65 -6.95 159.5 -7.6 Q158.1 -6.85 157.15 -6.6 L155.65 -6.45 Q153.65 -6.6 153.4 -7.85 153.15 -9.15 153.3 -9.7 153.3 -10.7 154.6 -12.9 155.9 -15.1 159.85 -17.0 L160.3 -18.7 158.9 -18.65 156.55 -18.85 157.15 -21.7 158.15 -21.55 160.0 -21.45 161.25 -21.5 M154.85 -17.35 L153.1 -16.05 152.4 -17.3 151.6 -18.4 153.3 -19.55 154.15 -18.5 154.85 -17.35 M149.15 -16.9 L150.85 -18.05 151.75 -16.95 152.5 -15.8 151.65 -15.25 150.7 -14.55 149.95 -15.8 149.15 -16.9 M159.15 -11.4 L159.3 -13.55 Q158.25 -12.8 157.55 -11.85 156.85 -10.95 156.75 -10.1 156.65 -9.4 157.1 -9.45 158.05 -9.55 159.15 -10.3 L159.15 -11.4 M177.65 -20.1 L177.65 -23.4 179.95 -23.45 184.05 -23.75 Q186.4 -24.05 188.35 -24.75 L189.65 -22.45 186.4 -19.95 183.85 -17.75 186.4 -18.1 Q188.65 -18.1 190.15 -16.7 191.7 -15.3 191.35 -12.5 190.7 -9.1 187.95 -7.45 185.25 -5.85 182.35 -5.85 180.25 -5.85 178.8 -6.75 177.35 -7.6 177.55 -9.5 177.85 -11.05 179.15 -11.95 180.5 -12.8 182.2 -12.85 183.7 -12.8 184.9 -12.05 186.05 -11.25 186.2 -9.75 187.3 -10.35 187.65 -11.2 L187.95 -12.2 Q188.15 -12.75 187.75 -13.95 187.35 -15.15 185.05 -15.3 182.45 -15.25 180.35 -13.85 178.25 -12.5 175.75 -10.15 L173.6 -12.6 Q175.0 -13.5 176.95 -15.1 L180.7 -18.25 183.4 -20.85 181.9 -20.6 177.65 -20.1 M162.5 -15.0 L162.3 -13.15 163.9 -15.3 162.5 -15.0 M181.55 -10.2 Q180.6 -10.1 180.6 -9.5 180.55 -8.9 181.15 -8.65 L182.3 -8.4 183.35 -8.55 Q183.2 -9.55 182.65 -9.9 182.05 -10.25 181.55 -10.2 M233.35 -7.4 Q234.85 -7.55 235.2 -9.05 235.3 -9.75 234.95 -10.2 234.55 -10.65 233.85 -10.7 232.3 -10.55 231.95 -9.05 231.85 -7.55 233.35 -7.4 M230.65 -9.05 Q230.85 -10.3 231.8 -11.15 232.75 -12.0 234.05 -12.0 235.25 -12.0 236.0 -11.15 236.7 -10.3 236.55 -9.05 236.3 -7.8 235.35 -6.9 234.35 -6.05 233.15 -6.0 231.9 -6.05 231.2 -6.9 230.5 -7.8 230.65 -9.05 M-245.1 -20.25 L-246.05 -20.35 -245.7 -23.85 -242.6 -23.5 -239.4 -23.4 -233.65 -23.85 -232.35 -21.15 -236.1 -19.4 -239.6 -17.0 -239.9 -17.35 -241.15 -19.1 -239.45 -20.35 -243.25 -20.2 -245.1 -20.25 M-243.5 -13.8 L-245.1 -12.3 -245.8 -11.15 Q-245.75 -10.65 -245.45 -10.5 L-243.5 -10.1 -241.35 -10.05 -235.95 -10.45 -233.1 -11.1 -233.1 -9.25 -233.0 -7.6 -238.05 -6.9 -242.05 -6.75 Q-245.7 -6.7 -247.7 -7.6 -249.7 -8.5 -249.35 -10.85 -249.1 -12.2 -248.05 -13.4 L-245.5 -15.65 -243.5 -13.8 M-224.85 -22.6 L-224.55 -24.8 -221.5 -24.55 Q-221.05 -24.6 -221.0 -24.2 -221.15 -23.9 -221.45 -23.9 L-222.15 -20.75 -220.95 -19.45 -218.3 -21.1 -216.35 -21.6 Q-215.75 -21.65 -214.85 -21.0 -213.95 -20.4 -214.15 -18.3 L-214.4 -17.2 -215.3 -14.0 -215.8 -11.6 -215.8 -11.0 Q-215.8 -10.65 -215.4 -10.6 L-214.5 -10.9 Q-213.8 -11.2 -212.5 -12.4 L-212.3 -11.0 -211.85 -9.15 Q-213.45 -7.8 -214.7 -7.35 L-216.65 -6.9 Q-217.65 -6.85 -218.6 -7.7 -219.55 -8.5 -219.3 -10.75 L-218.85 -12.8 -218.15 -15.55 -217.75 -17.3 Q-217.65 -18.0 -218.25 -18.0 -219.25 -17.9 -220.6 -16.7 L-223.2 -14.25 -223.65 -10.9 -223.9 -8.65 -224.05 -5.95 -227.8 -5.75 -227.35 -7.6 -227.05 -9.4 -226.9 -10.25 -228.0 -8.9 -229.1 -7.6 -231.25 -10.2 -227.55 -13.95 -226.05 -15.6 -225.9 -16.4 -227.35 -16.0 -229.35 -15.65 -229.55 -19.2 Q-227.4 -19.2 -225.3 -19.85 L-224.85 -22.6 M-204.85 -22.7 L-206.8 -17.25 -207.35 -14.6 -207.5 -12.5 -206.3 -14.0 Q-205.85 -12.85 -205.1 -11.9 L-206.4 -10.0 Q-207.25 -8.65 -207.6 -6.7 L-210.55 -6.2 -210.8 -9.15 Q-210.9 -11.3 -210.45 -14.7 L-209.55 -18.9 Q-208.9 -21.5 -207.7 -24.3 L-204.45 -23.3 -204.25 -23.0 Q-204.45 -22.65 -204.85 -22.7 M-202.6 -20.45 L-201.15 -20.3 -198.7 -20.3 -198.4 -22.15 -198.05 -24.4 -194.4 -23.75 -194.15 -23.5 Q-194.3 -23.2 -194.7 -23.2 L-194.9 -22.3 -195.3 -20.65 -193.35 -21.05 -192.05 -21.45 -192.55 -18.25 -195.8 -17.55 -196.15 -14.65 -196.2 -12.8 -194.05 -11.75 -192.6 -10.55 -193.5 -9.25 -194.5 -7.6 Q-195.3 -8.6 -196.5 -9.2 -197.0 -7.25 -198.45 -6.7 -199.95 -6.1 -201.05 -6.2 -203.35 -6.25 -204.4 -7.3 -205.4 -8.35 -205.15 -9.9 -204.8 -11.75 -203.2 -12.55 -201.55 -13.4 -199.5 -13.3 L-199.3 -15.65 -199.15 -17.1 -201.55 -17.0 -203.1 -17.05 -202.6 -20.45 M-165.95 -25.2 L-166.3 -22.65 -171.35 -22.65 -174.0 -5.3 -176.5 -5.3 -173.55 -25.2 -165.95 -25.2 M-201.1 -9.15 L-200.3 -9.25 Q-199.75 -9.4 -199.55 -10.15 L-199.55 -10.45 -200.75 -10.7 -201.65 -10.55 Q-202.2 -10.4 -202.3 -9.9 -202.35 -9.5 -201.95 -9.3 L-201.1 -9.15 M-186.0 -8.35 L-188.7 -6.0 Q-189.75 -7.75 -192.45 -9.65 L-190.05 -11.95 -187.5 -9.9 -186.0 -8.35 M-164.8 -23.8 L-152.55 -23.8 -153.05 -20.7 -161.5 -20.7 -162.1 -16.75 -154.8 -16.75 -155.25 -13.75 -162.55 -13.75 -163.55 -7.25 -167.3 -7.25 -164.8 -23.8 M-150.4 -23.8 L-138.15 -23.8 -138.65 -20.7 -147.1 -20.7 -147.7 -16.75 -140.4 -16.75 -140.85 -13.75 -148.15 -13.75 -149.15 -7.25 -152.9 -7.25 -150.4 -23.8 M-122.65 -21.2 L-124.35 -9.85 -123.35 -9.85 -121.65 -21.2 -122.65 -21.2 M-126.6 -21.2 L-131.45 -7.25 -135.5 -7.25 -136.2 -21.2 -137.15 -21.2 -136.75 -23.8 -131.9 -23.8 -132.3 -21.2 -133.1 -21.2 -133.0 -10.4 -129.7 -21.2 -130.45 -21.2 -130.05 -23.8 -117.05 -23.8 -117.45 -21.2 -118.45 -21.2 -120.15 -9.85 -119.15 -9.85 -119.55 -7.25 -128.85 -7.25 -128.5 -9.85 -127.45 -9.85 -125.75 -21.2 -126.6 -21.2 M-107.2 -25.1 L-110.2 -5.2 -117.8 -5.2 -117.4 -7.75 -112.35 -7.75 -109.75 -25.1 -107.2 -25.1 M-82.3 -23.0 L-82.4 -21.65 -82.5 -19.8 -84.85 -19.4 -89.1 -19.15 -91.85 -19.25 -91.35 -22.45 -88.6 -22.35 -84.45 -22.6 -82.3 -23.0 M-93.9 -22.8 L-94.25 -22.75 -95.65 -19.35 Q-96.35 -17.3 -96.9 -14.0 L-97.0 -13.05 -97.0 -12.35 -96.5 -13.05 -95.9 -13.9 Q-95.1 -12.5 -94.55 -12.2 L-95.8 -9.85 -96.7 -7.1 -99.8 -6.3 Q-100.15 -7.75 -100.3 -9.75 -100.5 -11.75 -100.05 -14.75 L-98.9 -19.85 -97.2 -24.55 -94.15 -23.35 -93.65 -23.0 -93.9 -22.8 M-93.9 -10.85 L-93.65 -11.85 -92.75 -13.95 -90.1 -13.4 -90.65 -11.95 Q-90.8 -11.25 -90.2 -11.05 L-87.9 -10.85 -82.6 -11.4 -83.25 -9.2 -83.45 -7.95 -86.1 -7.7 -88.8 -7.65 Q-91.2 -7.6 -92.7 -8.25 -94.15 -8.9 -93.9 -10.85 M-82.2 -8.8 L-74.3 -8.8 -74.0 -11.0 -80.1 -11.0 -79.7 -13.75 -73.55 -13.75 -73.25 -15.9 -70.0 -15.65 Q-69.45 -15.65 -69.45 -15.35 -69.4 -15.05 -70.1 -14.95 L-70.3 -13.75 -64.05 -13.75 -64.5 -11.0 -70.7 -11.0 -71.0 -8.8 -63.05 -8.8 -63.45 -6.1 -82.65 -6.1 -82.2 -8.8 M-61.6 -21.6 L-66.65 -21.6 -64.55 -19.6 Q-63.15 -18.15 -62.45 -16.95 L-62.85 -16.6 -63.75 -15.9 -64.4 -15.4 -65.1 -14.9 -65.5 -15.5 -66.25 -16.6 -70.2 -16.3 -75.5 -15.9 -78.95 -15.65 Q-79.1 -15.2 -79.6 -15.1 -80.05 -15.15 -80.0 -15.65 L-80.2 -18.4 -78.5 -18.45 -76.8 -18.55 -74.6 -21.6 -80.0 -21.6 -79.6 -24.3 -61.2 -24.3 -61.6 -21.6 M-67.6 -21.6 L-70.35 -21.6 Q-70.45 -21.15 -71.05 -21.15 L-73.05 -18.7 -70.75 -18.9 -68.4 -19.05 -69.8 -20.2 -67.6 -21.6 M-44.1 -12.5 Q-44.75 -9.1 -47.5 -7.45 -50.2 -5.85 -53.1 -5.85 -55.2 -5.85 -56.65 -6.75 -58.1 -7.6 -57.9 -9.5 -57.6 -11.05 -56.3 -11.95 -54.95 -12.8 -53.25 -12.85 -51.75 -12.8 -50.55 -12.05 -49.4 -11.25 -49.25 -9.75 -48.15 -10.35 -47.8 -11.2 L-47.5 -12.2 Q-47.3 -12.75 -47.7 -13.95 -48.1 -15.15 -50.4 -15.3 -53.0 -15.25 -55.1 -13.85 -57.2 -12.5 -59.7 -10.15 L-61.85 -12.6 -58.5 -15.1 Q-56.55 -16.65 -54.75 -18.25 L-52.05 -20.85 -53.55 -20.6 -57.8 -20.1 -57.8 -23.4 -55.5 -23.45 -51.4 -23.75 Q-49.05 -24.05 -47.1 -24.75 L-45.8 -22.45 -49.05 -19.95 -51.6 -17.75 -49.05 -18.1 Q-46.8 -18.1 -45.3 -16.7 -43.75 -15.3 -44.1 -12.5 M-54.85 -9.5 Q-54.9 -8.9 -54.3 -8.65 L-53.15 -8.4 -52.1 -8.55 Q-52.25 -9.55 -52.8 -9.9 L-53.9 -10.2 Q-54.85 -10.1 -54.85 -9.5" fill="#333333" fill-rule="evenodd" stroke="none"/>
    <path d="M225.75 -14.15 L194.75 -14.15" fill="none" stroke="#333333" stroke-linecap="round" stroke-linejoin="round" stroke-width="2.0"/>
  </g>
</svg>
