<?xml version="1.0" encoding="UTF-8" standalone="no"?>
<svg xmlns:ffdec="https://www.free-decompiler.com/flash" xmlns:xlink="http://www.w3.org/1999/xlink" ffdec:objectType="shape" height="50.9px" width="41.7px" xmlns="http://www.w3.org/2000/svg">
  <g transform="matrix(1.0, 0.0, 0.0, 1.0, 535.15, 202.1)">
    <path d="M-499.9 -159.0 Q-505.85 -151.7 -514.3 -151.7 -522.75 -151.7 -528.7 -159.0 -534.65 -166.3 -534.65 -176.65 -534.65 -187.0 -528.7 -194.3 -522.75 -201.6 -514.3 -201.6 -505.85 -201.6 -499.9 -194.3 -493.95 -187.0 -493.95 -176.65 -493.95 -166.3 -499.9 -159.0" fill="#ffffff" fill-rule="evenodd" stroke="none"/>
    <path d="M-499.9 -159.0 Q-505.85 -151.7 -514.3 -151.7 -522.75 -151.7 -528.7 -159.0 -534.65 -166.3 -534.65 -176.65 -534.65 -187.0 -528.7 -194.3 -522.75 -201.6 -514.3 -201.6 -505.85 -201.6 -499.9 -194.3 -493.95 -187.0 -493.95 -176.65 -493.95 -166.3 -499.9 -159.0 Z" fill="none" stroke="#00ccff" stroke-linecap="round" stroke-linejoin="round" stroke-width="1.0"/>
  </g>
</svg>
