<?xml version="1.0" encoding="UTF-8" standalone="no"?>
<svg xmlns:ffdec="https://www.free-decompiler.com/flash" xmlns:xlink="http://www.w3.org/1999/xlink" ffdec:objectType="shape" height="73.0px" width="406.0px" xmlns="http://www.w3.org/2000/svg">
  <g transform="matrix(1.0, 0.0, 0.0, 1.0, 203.0, 36.5)">
    <path d="M203.0 36.5 L-203.0 36.5 -203.0 -36.5 203.0 -36.5 203.0 36.5" fill="#663300" fill-opacity="0.7607843" fill-rule="evenodd" stroke="none"/>
    <path d="M-117.35 -36.5 L-117.35 36.5 -203.0 36.5 -203.0 -36.5 -117.35 -36.5" fill="url(#gradient0)" fill-rule="evenodd" stroke="none"/>
    <path d="M116.75 36.5 L116.75 -36.5 202.4 -36.5 202.4 36.5 116.75 36.5" fill="url(#gradient1)" fill-rule="evenodd" stroke="none"/>
    <path d="M-189.0 -36.5 L-189.0 36.5 -203.0 36.5 -203.0 -36.5 -189.0 -36.5 M-201.0 -34.95 L-201.0 35.0 -191.0 35.0 -191.0 -34.95 -201.0 -34.95" fill="url(#gradient2)" fill-rule="evenodd" stroke="none"/>
    <path d="M-201.0 -34.95 L-191.0 -34.95 -191.0 35.0 -201.0 35.0 -201.0 -34.95" fill="url(#gradient3)" fill-rule="evenodd" stroke="none"/>
  </g>
  <defs>
    <linearGradient gradientTransform="matrix(0.0523, 0.0, 0.0, 0.0446, -160.2, 0.0)" gradientUnits="userSpaceOnUse" id="gradient0" spreadMethod="pad" x1="-819.2" x2="819.2">
      <stop offset="0.08627450980392157" stop-color="#000000" stop-opacity="0.47058824"/>
      <stop offset="1.0" stop-color="#000000" stop-opacity="0.0"/>
    </linearGradient>
    <linearGradient gradientTransform="matrix(-0.0523, 0.0, 0.0, -0.0446, 159.6, 0.0)" gradientUnits="userSpaceOnUse" id="gradient1" spreadMethod="pad" x1="-819.2" x2="819.2">
      <stop offset="0.08627450980392157" stop-color="#000000" stop-opacity="0.47058824"/>
      <stop offset="1.0" stop-color="#000000" stop-opacity="0.0"/>
    </linearGradient>
    <linearGradient gradientTransform="matrix(0.0088, 0.0014, -0.0068, 0.044, -196.0, 0.0)" gradientUnits="userSpaceOnUse" id="gradient2" spreadMethod="pad" x1="-819.2" x2="819.2">
      <stop offset="0.0" stop-color="#ffffff"/>
      <stop offset="1.0" stop-color="#000000"/>
    </linearGradient>
    <radialGradient cx="0" cy="0" gradientTransform="matrix(0.0675, 0.0, 0.0, 0.0675, -197.4, -8.2)" gradientUnits="userSpaceOnUse" id="gradient3" r="819.2" spreadMethod="pad">
      <stop offset="0.0" stop-color="#ffffff"/>
      <stop offset="1.0" stop-color="#000000"/>
    </radialGradient>
  </defs>
</svg>
