<?xml version="1.0" encoding="UTF-8" standalone="no"?>
<svg xmlns:ffdec="https://www.free-decompiler.com/flash" xmlns:xlink="http://www.w3.org/1999/xlink" ffdec:objectType="shape" height="338.3px" width="372.25px" xmlns="http://www.w3.org/2000/svg">
  <g transform="matrix(1.0, 0.0, 0.0, 1.0, 189.25, 171.8)">
    <path d="M-182.45 -166.5 L182.5 -166.5 182.5 166.5 -182.45 166.5 -182.45 -166.5" fill="#ffcc00" fill-opacity="0.0" fill-rule="evenodd" stroke="none"/>
    <path d="M154.0 -171.8 L154.0 -154.5 -180.6 -154.5 Q-184.2 -154.5 -186.75 -157.05 -189.25 -159.55 -189.25 -163.15 -189.25 -166.75 -186.75 -169.3 -184.2 -171.8 -180.6 -171.8 L154.0 -171.8" fill="url(#gradient0)" fill-rule="evenodd" stroke="none"/>
    <path d="M154.0 -154.5 L154.0 -171.8 163.95 -171.8 163.95 -154.5 154.0 -154.5" fill="url(#gradient1)" fill-rule="evenodd" stroke="none"/>
    <path d="M182.5 -151.5 L-184.45 -151.5" fill="none" stroke="#999999" stroke-linecap="round" stroke-linejoin="round" stroke-width="1.0"/>
    <path d="M182.5 142.45 L-184.45 142.45" fill="none" stroke="#999999" stroke-linecap="round" stroke-linejoin="round" stroke-width="1.0"/>
  </g>
  <defs>
    <linearGradient gradientTransform="matrix(0.1573, 0.0, 0.0, 0.0106, -60.4, -163.15)" gradientUnits="userSpaceOnUse" id="gradient0" spreadMethod="pad" x1="-819.2" x2="819.2">
      <stop offset="0.0" stop-color="#666666"/>
      <stop offset="1.0" stop-color="#333333"/>
    </linearGradient>
    <linearGradient gradientTransform="matrix(0.1573, 0.0, 0.0, 0.0106, 46.05, -163.15)" gradientUnits="userSpaceOnUse" id="gradient1" spreadMethod="pad" x1="-819.2" x2="819.2">
      <stop offset="0.0" stop-color="#666666"/>
      <stop offset="1.0" stop-color="#333333"/>
    </linearGradient>
  </defs>
</svg>
