<?xml version="1.0" encoding="UTF-8" standalone="no"?>
<svg xmlns:ffdec="https://www.free-decompiler.com/flash" xmlns:xlink="http://www.w3.org/1999/xlink" ffdec:objectType="shape" height="27.3px" width="57.2px" xmlns="http://www.w3.org/2000/svg">
  <g transform="matrix(1.0, 0.0, 0.0, 1.0, 28.2, 13.25)">
    <path d="M24.8 -12.95 L24.8 -13.0 Q26.15 -12.6 27.25 -11.5 L28.5 -9.65 28.75 -9.05 29.0 -7.25 29.0 8.05 Q29.0 9.2 28.65 10.2 28.2 11.3 27.25 12.25 L27.2 12.3 Q26.15 13.35 24.85 13.8 L24.8 13.8 23.0 14.05 -22.2 14.05 -24.2 13.7 Q-25.45 13.25 -26.45 12.3 -27.4 11.3 -27.8 10.15 L-27.8 10.2 Q-28.2 9.2 -28.2 8.05 L-28.2 -7.25 -27.9 -9.05 -27.7 -9.6 -27.7 -9.65 Q-27.3 -10.65 -26.5 -11.45 L-26.4 -11.55 -24.15 -12.9 -24.2 -12.9 -22.2 -13.25 23.0 -13.25 24.8 -12.95 M24.65 -12.5 L23.0 -12.75 -22.2 -12.75 -24.05 -12.45 -24.0 -12.45 Q-25.15 -12.05 -26.1 -11.15 L-27.25 -9.4 -27.25 -9.45 -27.45 -8.9 -27.7 -7.25 -27.7 8.05 -27.35 9.95 Q-27.0 11.05 -26.1 11.9 L-24.05 13.25 -22.2 13.55 23.0 13.55 24.65 13.3 Q25.9 12.9 26.85 11.95 L26.9 11.9 28.15 10.0 28.5 8.05 28.5 -7.25 28.25 -8.9 28.05 -9.45 26.85 -11.15 Q25.85 -12.15 24.65 -12.5" fill="#000000" fill-opacity="0.17254902" fill-rule="evenodd" stroke="none"/>
    <path d="M24.65 -12.5 Q25.85 -12.15 26.85 -11.15 L28.05 -9.45 28.25 -8.9 28.5 -7.25 28.5 8.05 28.15 10.0 26.9 11.9 26.85 11.95 Q25.9 12.9 24.65 13.3 L23.0 13.55 -22.2 13.55 -24.05 13.25 -26.1 11.9 Q-27.0 11.05 -27.35 9.95 L-27.7 8.05 -27.7 -7.25 -27.45 -8.9 -27.25 -9.45 -27.25 -9.4 -26.1 -11.15 Q-25.15 -12.05 -24.0 -12.45 L-24.05 -12.45 -22.2 -12.75 23.0 -12.75 24.65 -12.5 M24.5 -12.0 L23.0 -12.25 -22.2 -12.25 -23.85 -11.95 Q-24.9 -11.65 -25.75 -10.8 L-26.8 -9.2 -26.8 -9.25 -26.95 -8.75 -27.2 -7.25 -27.2 8.05 Q-27.2 9.0 -26.85 9.8 L-26.9 9.8 -25.75 11.55 Q-24.9 12.4 -23.9 12.8 L-23.85 12.8 -22.2 13.05 23.0 13.05 24.5 12.85 Q25.6 12.5 26.5 11.6 L26.55 11.55 Q27.3 10.75 27.7 9.8 L28.0 8.05 28.0 -7.25 27.8 -8.75 27.6 -9.25 26.5 -10.8 Q25.6 -11.7 24.5 -12.0" fill="#000000" fill-opacity="0.34901962" fill-rule="evenodd" stroke="none"/>
    <path d="M24.5 -12.0 Q25.6 -11.7 26.5 -10.8 L27.6 -9.25 27.8 -8.75 28.0 -7.25 28.0 8.05 27.7 9.8 Q27.3 10.75 26.55 11.55 L26.5 11.6 Q25.6 12.5 24.5 12.85 L23.0 13.05 -22.2 13.05 -23.85 12.8 -23.9 12.8 Q-24.9 12.4 -25.75 11.55 L-26.9 9.8 -26.85 9.8 Q-27.2 9.0 -27.2 8.05 L-27.2 -7.25 -26.95 -8.75 -26.8 -9.25 -26.8 -9.2 -25.75 -10.8 Q-24.9 -11.65 -23.85 -11.95 L-22.2 -12.25 23.0 -12.25 24.5 -12.0 M27.15 -9.05 L26.15 -10.45 Q25.35 -11.25 24.35 -11.55 L23.0 -11.75 -22.2 -11.75 -23.7 -11.5 Q-24.65 -11.2 -25.4 -10.45 L-26.35 -9.05 -26.3 -9.05 -26.5 -8.6 -26.7 -7.25 -26.7 8.05 -26.4 9.65 Q-26.1 10.5 -25.4 11.2 L-23.7 12.3 -22.2 12.55 23.0 12.55 24.35 12.35 Q25.35 12.05 26.15 11.2 26.9 10.5 27.25 9.65 L27.5 8.05 27.5 -7.25 27.3 -8.6 27.15 -9.05" fill="#000000" fill-opacity="0.5254902" fill-rule="evenodd" stroke="none"/>
    <path d="M27.15 -9.05 L27.3 -8.6 27.5 -7.25 27.5 8.05 27.25 9.65 Q26.9 10.5 26.15 11.2 25.35 12.05 24.35 12.35 L23.0 12.55 -22.2 12.55 -23.7 12.3 -25.4 11.2 Q-26.1 10.5 -26.4 9.65 L-26.7 8.05 -26.7 -7.25 -26.5 -8.6 -26.3 -9.05 -26.35 -9.05 -25.4 -10.45 Q-24.65 -11.2 -23.7 -11.5 L-22.2 -11.75 23.0 -11.75 24.35 -11.55 Q25.35 -11.25 26.15 -10.45 L27.15 -9.05" fill="#000000" fill-opacity="0.7019608" fill-rule="evenodd" stroke="none"/>
  </g>
</svg>
