<?xml version="1.0" encoding="UTF-8" standalone="no"?>
<svg xmlns:ffdec="https://www.free-decompiler.com/flash" xmlns:xlink="http://www.w3.org/1999/xlink" ffdec:objectType="shape" height="24.3px" width="54.2px" xmlns="http://www.w3.org/2000/svg">
  <g transform="matrix(1.0, 0.0, 0.0, 1.0, 27.1, 12.15)">
    <path d="M26.45 -8.85 L23.8 -8.85 -23.95 -8.85 -23.95 9.05 -26.35 9.05 -26.6 7.65 -26.6 -7.65 -26.4 -8.85 -26.25 -9.25 -25.45 -10.5 -23.95 -11.4 -22.6 -11.65 22.6 -11.65 23.8 -11.45 25.4 -10.5 26.3 -9.25 26.45 -8.85" fill="#999999" fill-rule="evenodd" stroke="none"/>
    <path d="M26.45 -8.85 L26.6 -7.65 26.6 7.65 26.35 9.05 25.4 10.45 23.8 11.5 22.6 11.65 -22.6 11.65 -23.95 11.45 -25.45 10.45 -26.35 9.05 -23.95 9.05 23.8 9.05 23.8 -8.85 26.45 -8.85" fill="#333333" fill-rule="evenodd" stroke="none"/>
    <path d="M23.8 -8.85 L23.8 9.05 -23.95 9.05 -23.95 -8.85 23.8 -8.85" fill="#666666" fill-rule="evenodd" stroke="none"/>
    <path d="M-26.35 9.05 L-25.45 10.45 -23.95 11.45 -22.6 11.65 22.6 11.65 23.8 11.5 25.4 10.45 26.35 9.05 26.6 7.65 26.6 -7.65 26.45 -8.85 26.3 -9.25 25.4 -10.5 23.8 -11.45 22.6 -11.65 -22.6 -11.65 -23.95 -11.4 -25.45 -10.5 -26.25 -9.25 -26.4 -8.85 -26.6 -7.65 -26.6 7.65 -26.35 9.05 Z" fill="none" stroke="#333333" stroke-linecap="round" stroke-linejoin="round" stroke-width="1.0"/>
  </g>
</svg>
