<?xml version="1.0" encoding="UTF-8" standalone="no"?>
<svg xmlns:ffdec="https://www.free-decompiler.com/flash" xmlns:xlink="http://www.w3.org/1999/xlink" ffdec:objectType="shape" height="21.95px" width="48.9px" xmlns="http://www.w3.org/2000/svg">
  <g transform="matrix(1.0, 0.0, 0.0, 1.0, 24.45, 11.0)">
    <path d="M-23.7 8.1 L-23.95 6.85 -23.95 -6.9 -23.75 -8.0 -23.65 -8.35 -22.9 -9.5 Q-22.3 -10.1 -21.55 -10.3 L-20.35 -10.5 20.35 -10.5 21.45 -10.35 Q22.2 -10.15 22.85 -9.5 L23.65 -8.35 23.8 -8.0 21.45 -8.0 -21.55 -8.0 -21.55 8.1 -23.7 8.1" fill="#cccccc" fill-rule="evenodd" stroke="none"/>
    <path d="M-23.7 8.1 L-21.55 8.1 21.45 8.1 21.45 -8.0 23.8 -8.0 23.95 -6.9 23.95 6.85 23.75 8.1 22.85 9.35 Q22.2 10.0 21.45 10.3 L20.35 10.45 -20.35 10.45 -21.55 10.25 -22.9 9.35 -23.7 8.1" fill="#666666" fill-rule="evenodd" stroke="none"/>
    <path d="M-21.55 8.1 L-21.55 -8.0 21.45 -8.0 21.45 8.1 -21.55 8.1" fill="#999999" fill-rule="evenodd" stroke="none"/>
    <path d="M23.8 -8.0 L23.65 -8.35 22.85 -9.5 Q22.2 -10.15 21.45 -10.35 L20.35 -10.5 -20.35 -10.5 -21.55 -10.3 Q-22.3 -10.1 -22.9 -9.5 L-23.65 -8.35 -23.75 -8.0 -23.95 -6.9 -23.95 6.85 -23.7 8.1 -22.9 9.35 -21.55 10.25 -20.35 10.45 20.35 10.45 21.45 10.3 Q22.2 10.0 22.85 9.35 L23.75 8.1 23.95 6.85 23.95 -6.9 23.8 -8.0 Z" fill="none" stroke="#999999" stroke-linecap="round" stroke-linejoin="round" stroke-width="1.0"/>
  </g>
</svg>
