<?xml version="1.0" encoding="UTF-8" standalone="no"?>
<svg xmlns:ffdec="https://www.free-decompiler.com/flash" xmlns:xlink="http://www.w3.org/1999/xlink" ffdec:objectType="shape" height="56.05px" width="325.0px" xmlns="http://www.w3.org/2000/svg">
  <g transform="matrix(1.0, 0.0, 0.0, 1.0, 162.5, -75.0)">
    <path d="M162.3 79.45 L159.7 79.45 158.85 78.25 Q157.7 77.1 156.05 77.1 L-156.95 77.1 Q-158.6 77.1 -159.8 78.25 -160.95 79.45 -160.95 81.1 L-160.95 124.75 Q-160.95 125.95 -160.3 126.9 L-162.2 126.9 -162.5 125.05 -162.5 81.05 -162.3 79.45 Q-161.9 77.95 -160.75 76.8 -159.7 75.7 -158.35 75.3 L-156.5 75.05 156.5 75.05 157.15 75.05 Q159.25 75.25 160.75 76.8 161.9 77.95 162.3 79.45" fill="#666666" fill-rule="evenodd" stroke="none"/>
    <path d="M162.3 79.45 L162.5 81.05 162.5 125.05 162.25 126.9 Q161.8 128.2 160.75 129.3 159.25 130.8 157.15 131.0 L156.5 131.05 -156.5 131.05 -158.35 130.75 Q-159.7 130.35 -160.75 129.3 -161.8 128.2 -162.2 126.9 L-160.3 126.9 -159.8 127.55 Q-158.6 128.75 -156.95 128.75 L156.05 128.75 Q157.7 128.75 158.85 127.55 160.05 126.4 160.05 124.75 L160.05 81.1 Q160.05 80.2 159.7 79.45 L162.3 79.45" fill="#000000" fill-rule="evenodd" stroke="none"/>
    <path d="M159.7 79.45 Q160.05 80.2 160.05 81.1 L160.05 124.75 Q160.05 126.4 158.85 127.55 157.7 128.75 156.05 128.75 L-156.95 128.75 Q-158.6 128.75 -159.8 127.55 L-160.3 126.9 Q-160.95 125.95 -160.95 124.75 L-160.95 81.1 Q-160.95 79.45 -159.8 78.25 -158.6 77.1 -156.95 77.1 L156.05 77.1 Q157.7 77.1 158.85 78.25 L159.7 79.45" fill="#000000" fill-opacity="0.5529412" fill-rule="evenodd" stroke="none"/>
  </g>
</svg>
