<?xml version="1.0" encoding="UTF-8" standalone="no"?>
<svg xmlns:ffdec="https://www.free-decompiler.com/flash" xmlns:xlink="http://www.w3.org/1999/xlink" ffdec:objectType="shape" height="16.65px" width="16.65px" xmlns="http://www.w3.org/2000/svg">
  <g transform="matrix(1.0, 0.0, 0.0, 1.0, 8.0, 8.05)">
    <path d="M7.15 -5.05 L6.7 -6.1 Q6.25 -6.55 5.65 -6.55 L-5.0 -6.55 Q-5.6 -6.55 -6.05 -6.1 -6.5 -5.65 -6.5 -5.05 L-6.5 5.6 Q-6.5 6.2 -6.05 6.65 -5.6 7.1 -5.0 7.1 L5.65 7.1 Q6.25 7.1 6.7 6.65 L7.15 5.6 7.15 -5.05 M7.65 -5.05 L7.65 5.6 Q7.65 6.4 7.05 7.0 6.45 7.6 5.65 7.6 L-5.0 7.6 Q-5.8 7.6 -6.4 7.0 -7.0 6.4 -7.0 5.6 L-7.0 -5.05 Q-7.0 -5.85 -6.4 -6.45 -5.8 -7.05 -5.0 -7.05 L5.65 -7.05 Q6.45 -7.05 7.05 -6.45 7.65 -5.85 7.65 -5.05" fill="#000000" fill-opacity="0.6" fill-rule="evenodd" stroke="none"/>
    <path d="M7.15 -5.05 L7.15 5.6 6.7 6.65 Q6.25 7.1 5.65 7.1 L-5.0 7.1 Q-5.6 7.1 -6.05 6.65 -6.5 6.2 -6.5 5.6 L-6.5 -5.05 Q-6.5 -5.65 -6.05 -6.1 -5.6 -6.55 -5.0 -6.55 L5.65 -6.55 Q6.25 -6.55 6.7 -6.1 L7.15 -5.05" fill="#000000" fill-opacity="0.8" fill-rule="evenodd" stroke="none"/>
    <path d="M7.65 -5.05 Q7.65 -5.85 7.05 -6.45 6.45 -7.05 5.65 -7.05 L-5.0 -7.05 Q-5.8 -7.05 -6.4 -6.45 -7.0 -5.85 -7.0 -5.05 L-7.0 5.6 Q-7.0 6.4 -6.4 7.0 -5.8 7.6 -5.0 7.6 L5.65 7.6 Q6.45 7.6 7.05 7.0 7.65 6.4 7.65 5.6 L7.65 -5.05 M8.15 -5.05 L8.15 5.6 Q8.15 6.6 7.4 7.35 6.65 8.1 5.65 8.1 L-5.0 8.1 Q-6.0 8.1 -6.75 7.35 -7.5 6.6 -7.5 5.6 L-7.5 -5.05 Q-7.5 -6.05 -6.75 -6.8 -6.0 -7.55 -5.0 -7.55 L5.65 -7.55 Q6.65 -7.55 7.4 -6.8 8.15 -6.05 8.15 -5.05" fill="#000000" fill-opacity="0.4" fill-rule="evenodd" stroke="none"/>
    <path d="M8.65 -5.05 L8.65 5.6 Q8.65 6.8 7.8 7.75 6.85 8.6 5.65 8.6 L-5.0 8.6 Q-6.2 8.6 -7.1 7.75 -8.0 6.8 -8.0 5.6 L-8.0 -5.05 Q-8.0 -6.25 -7.1 -7.15 -6.2 -8.05 -5.0 -8.05 L5.65 -8.05 Q6.85 -8.05 7.8 -7.15 8.65 -6.25 8.65 -5.05 M8.15 -5.05 Q8.15 -6.05 7.4 -6.8 6.65 -7.55 5.65 -7.55 L-5.0 -7.55 Q-6.0 -7.55 -6.75 -6.8 -7.5 -6.05 -7.5 -5.05 L-7.5 5.6 Q-7.5 6.6 -6.75 7.35 -6.0 8.1 -5.0 8.1 L5.65 8.1 Q6.65 8.1 7.4 7.35 8.15 6.6 8.15 5.6 L8.15 -5.05" fill="#000000" fill-opacity="0.2" fill-rule="evenodd" stroke="none"/>
  </g>
</svg>
