<?xml version="1.0" encoding="UTF-8" standalone="no"?>
<svg xmlns:ffdec="https://www.free-decompiler.com/flash" xmlns:xlink="http://www.w3.org/1999/xlink" ffdec:objectType="shape" height="13.65px" width="13.65px" xmlns="http://www.w3.org/2000/svg">
  <g transform="matrix(1.0, 0.0, 0.0, 1.0, 6.8, 6.85)">
    <path d="M4.0 -4.2 L4.0 4.25 -4.25 4.25 -4.25 -4.2 4.0 -4.2" fill="#666666" fill-rule="evenodd" stroke="none"/>
    <path d="M4.0 -6.35 L4.0 -4.2 -4.25 -4.2 -4.25 4.25 -6.3 4.25 -6.3 -5.35 -6.0 -6.05 -5.3 -6.35 4.0 -6.35" fill="#bcbcbc" fill-rule="evenodd" stroke="none"/>
    <path d="M4.0 -6.35 L5.35 -6.35 6.05 -6.05 6.35 -5.35 6.35 5.3 6.05 6.0 5.35 6.3 -5.3 6.3 -6.0 6.0 -6.3 5.3 -6.3 4.25 -4.25 4.25 4.0 4.25 4.0 -4.2 4.0 -6.35" fill="#4d4d4d" fill-rule="evenodd" stroke="none"/>
    <path d="M-6.3 4.25 L-6.3 5.3 -6.0 6.0 -5.3 6.3 5.35 6.3 6.05 6.0 6.35 5.3 6.35 -5.35 6.05 -6.05 5.35 -6.35 4.0 -6.35 -5.3 -6.35 -6.0 -6.05 -6.3 -5.35 -6.3 4.25 Z" fill="none" stroke="#000000" stroke-linecap="round" stroke-linejoin="round" stroke-width="1.0"/>
  </g>
</svg>
