<?xml version="1.0" encoding="UTF-8" standalone="no"?>
<svg xmlns:ffdec="https://www.free-decompiler.com/flash" xmlns:xlink="http://www.w3.org/1999/xlink" ffdec:objectType="shape" height="13.65px" width="13.65px" xmlns="http://www.w3.org/2000/svg">
  <g transform="matrix(1.0, 0.0, 0.0, 1.0, 6.85, 6.9)">
    <path d="M6.3 -4.35 L4.25 -4.35 -4.0 -4.35 -4.0 4.1 -4.0 6.25 -5.35 6.25 -6.05 5.95 -6.35 5.25 -6.35 -5.4 -6.05 -6.1 -5.35 -6.4 5.3 -6.4 6.0 -6.1 6.3 -5.4 6.3 -4.35" fill="#4d4d4d" fill-rule="evenodd" stroke="none"/>
    <path d="M4.25 -4.35 L6.3 -4.35 6.3 5.25 6.0 5.95 5.3 6.25 -4.0 6.25 -4.0 4.1 4.25 4.1 4.25 -4.35" fill="#bcbcbc" fill-rule="evenodd" stroke="none"/>
    <path d="M-4.0 4.1 L-4.0 -4.35 4.25 -4.35 4.25 4.1 -4.0 4.1" fill="#666666" fill-rule="evenodd" stroke="none"/>
    <path d="M6.3 -4.35 L6.3 -5.4 6.0 -6.1 5.3 -6.4 -5.35 -6.4 -6.05 -6.1 -6.35 -5.4 -6.35 5.25 -6.05 5.95 -5.35 6.25 -4.0 6.25 5.3 6.25 6.0 5.95 6.3 5.25 6.3 -4.35 Z" fill="none" stroke="#000000" stroke-linecap="round" stroke-linejoin="round" stroke-width="1.0"/>
    <path d="M4.1 -2.8 L1.3 0.0 4.1 2.8 2.8 4.1 0.0 1.3 -2.8 4.1 -4.05 2.8 -1.25 0.0 -4.1 -2.8 -2.8 -4.1 0.0 -1.25 2.85 -4.1 4.1 -2.8" fill="#333333" fill-rule="evenodd" stroke="none"/>
  </g>
</svg>
