<?xml version="1.0" encoding="UTF-8" standalone="no"?>
<svg xmlns:ffdec="https://www.free-decompiler.com/flash" xmlns:xlink="http://www.w3.org/1999/xlink" ffdec:objectType="shape" height="11.0px" width="218.95px" xmlns="http://www.w3.org/2000/svg">
  <g transform="matrix(1.0, 0.0, 0.0, 1.0, 110.9, 10.3)">
    <path d="M2.65 -1.1 L0.5 -1.1 0.5 -8.5 2.65 -8.5 2.65 -1.1 M9.25 -3.5 L11.0 -3.5 10.1 -6.5 9.25 -3.5 M8.55 -1.1 L6.5 -1.1 9.05 -8.5 11.15 -8.5 13.7 -1.1 11.65 -1.1 11.4 -2.1 8.8 -2.1 8.55 -1.1 M17.55 -6.8 L16.45 -6.8 16.45 -2.8 17.55 -2.8 Q18.15 -2.85 18.45 -3.3 L18.75 -4.25 18.8 -4.85 Q18.85 -5.65 18.5 -6.2 18.2 -6.8 17.55 -6.8 M20.1 -7.45 Q20.95 -6.4 20.95 -4.75 20.9 -2.6 19.85 -1.85 18.8 -1.05 17.3 -1.1 L14.4 -1.1 14.4 -8.5 17.3 -8.5 Q19.25 -8.45 20.1 -7.45 M29.35 -8.5 L35.25 -8.5 35.25 -6.85 31.4 -6.85 31.4 -5.65 34.7 -5.65 34.7 -4.1 31.4 -4.1 31.4 -2.7 35.4 -2.7 35.4 -1.1 29.35 -1.1 29.35 -8.5 M25.0 -3.4 L26.45 -8.5 28.6 -8.5 26.1 -1.1 23.95 -1.1 21.4 -8.5 23.55 -8.5 25.0 -3.4 M38.25 -8.5 L41.15 -4.15 41.1 -8.5 43.1 -8.5 43.1 -1.1 41.1 -1.1 38.2 -5.45 38.25 -1.1 36.25 -1.1 36.25 -8.5 38.25 -8.5 M50.45 -6.75 L48.15 -6.75 48.15 -1.1 46.1 -1.1 46.1 -6.75 43.8 -6.75 43.8 -8.5 50.45 -8.5 50.45 -6.75 M57.5 -6.9 Q56.15 -6.95 56.2 -4.65 L56.25 -3.95 Q56.3 -3.45 56.7 -3.0 56.85 -2.7 57.55 -2.7 58.35 -2.7 58.55 -3.15 L58.75 -4.0 60.8 -4.0 60.7 -3.25 60.3 -2.35 59.3 -1.4 Q58.6 -0.95 57.55 -0.95 56.05 -0.95 55.1 -1.9 54.1 -2.9 54.05 -4.75 54.1 -6.5 55.0 -7.55 55.95 -8.65 57.5 -8.65 L58.75 -8.45 59.95 -7.7 60.6 -6.55 60.8 -5.7 58.75 -5.7 Q58.65 -6.5 58.3 -6.7 L57.5 -6.9 M68.6 -8.5 L68.6 -1.1 66.5 -1.1 66.5 -4.0 63.75 -4.0 63.75 -1.1 61.65 -1.1 61.65 -8.5 63.75 -8.5 63.75 -5.9 66.5 -5.9 66.5 -8.5 68.6 -8.5 M69.75 -8.5 L71.9 -8.5 71.9 -1.1 69.75 -1.1 69.75 -8.5 M79.35 -8.5 L82.25 -8.5 Q84.2 -8.45 85.05 -7.45 85.9 -6.4 85.9 -4.75 85.85 -2.6 84.8 -1.85 83.75 -1.05 82.25 -1.1 L79.35 -1.1 79.35 -8.5 M78.55 -1.1 L73.05 -1.1 73.05 -8.5 75.15 -8.5 75.15 -2.8 78.55 -2.8 78.55 -1.1 M90.7 -8.5 Q92.0 -8.45 92.6 -7.9 93.25 -7.35 93.2 -6.45 93.15 -5.4 92.65 -5.0 92.1 -4.6 91.8 -4.55 L92.65 -4.3 Q93.15 -4.0 93.2 -3.0 L93.2 -2.1 93.25 -1.6 93.45 -1.25 93.45 -1.1 91.35 -1.1 Q91.2 -1.25 91.15 -1.9 L91.15 -2.7 Q91.1 -3.75 90.15 -3.75 L88.85 -3.75 88.85 -1.1 86.8 -1.1 86.8 -8.5 90.7 -8.5 M90.5 -6.85 L88.85 -6.85 88.85 -5.3 90.5 -5.3 90.95 -5.45 91.15 -6.1 90.95 -6.65 90.5 -6.85 M82.5 -6.8 L81.4 -6.8 81.4 -2.8 82.5 -2.8 Q83.1 -2.85 83.4 -3.3 L83.7 -4.25 83.75 -4.85 Q83.8 -5.65 83.45 -6.2 83.15 -6.8 82.5 -6.8 M96.35 -6.85 L96.35 -5.65 99.65 -5.65 99.65 -4.1 96.35 -4.1 96.35 -2.7 100.35 -2.7 100.35 -1.1 94.3 -1.1 94.3 -8.5 100.2 -8.5 100.2 -6.85 96.35 -6.85 M101.2 -8.5 L103.2 -8.5 106.1 -4.15 106.05 -8.5 108.05 -8.5 108.05 -1.1 106.05 -1.1 103.15 -5.45 103.2 -1.1 101.2 -1.1 101.2 -8.5 M-110.9 -8.1 L-110.9 -10.3 -108.7 -10.3 -108.7 -8.1 -106.5 -8.1 -106.5 -5.9 -108.7 -5.9 -108.7 -8.1 -110.9 -8.1 M-106.5 -5.85 L-104.3 -5.85 -104.3 -3.65 -106.5 -3.65 -106.5 -1.5 -108.7 -1.5 -108.7 0.7 -110.9 0.7 -110.9 -1.5 -108.7 -1.5 -108.7 -3.7 -106.5 -3.7 -106.5 -5.85 M-93.05 -6.75 L-96.45 -6.75 -96.45 -5.4 -93.65 -5.4 -93.65 -3.75 -96.45 -3.75 -96.45 -1.1 -98.55 -1.1 -98.55 -8.5 -93.05 -8.5 -93.05 -6.75 M-92.15 -8.5 L-90.0 -8.5 -90.0 -1.1 -92.15 -1.1 -92.15 -8.5 M-81.95 -8.5 L-81.95 -1.1 -83.95 -1.1 -86.85 -5.45 -86.8 -1.1 -88.8 -1.1 -88.8 -8.5 -86.8 -8.5 -83.9 -4.15 -83.95 -8.5 -81.95 -8.5 M-71.35 -8.5 L-71.35 -2.8 -67.95 -2.8 -67.95 -1.1 -73.45 -1.1 -73.45 -8.5 -71.35 -8.5 M-76.65 -8.5 L-74.1 -1.1 -76.15 -1.1 -76.4 -2.1 -79.0 -2.1 -79.25 -1.1 -81.3 -1.1 -78.75 -8.5 -76.65 -8.5 M-76.8 -3.5 L-77.7 -6.5 -78.55 -3.5 -76.8 -3.5 M-64.1 -8.5 L-58.6 -8.5 -58.6 -6.75 -62.0 -6.75 -62.0 -5.4 -59.2 -5.4 -59.2 -3.75 -62.0 -3.75 -62.0 -1.1 -64.1 -1.1 -64.1 -8.5 M-58.25 -1.1 L-55.7 -8.5 -53.6 -8.5 -51.05 -1.1 -53.1 -1.1 -53.35 -2.1 -55.95 -2.1 -56.2 -1.1 -58.25 -1.1 M-53.75 -3.5 L-54.65 -6.5 -55.5 -3.5 -53.75 -3.5 M-43.5 -8.5 L-43.5 -1.1 -45.5 -1.1 -48.4 -5.45 -48.35 -1.1 -50.35 -1.1 -50.35 -8.5 -48.35 -8.5 -45.45 -4.15 -45.5 -8.5 -43.5 -8.5 M-42.8 -8.5 L-36.15 -8.5 -36.15 -6.75 -38.45 -6.75 -38.45 -1.1 -40.5 -1.1 -40.5 -6.75 -42.8 -6.75 -42.8 -8.5 M-31.25 -8.5 L-28.7 -1.1 -30.75 -1.1 -31.0 -2.1 -33.6 -2.1 -33.85 -1.1 -35.9 -1.1 -33.35 -8.5 -31.25 -8.5 M-31.4 -3.5 L-32.3 -6.5 -33.15 -3.5 -31.4 -3.5 M-24.05 -8.5 Q-23.45 -8.35 -22.9 -7.85 -22.35 -7.35 -22.2 -6.35 L-24.3 -6.35 Q-24.4 -6.95 -25.15 -6.9 L-25.65 -6.85 -25.95 -6.45 -25.7 -6.15 -24.4 -5.7 Q-23.4 -5.45 -22.7 -5.0 -22.05 -4.55 -22.0 -3.45 -21.95 -2.6 -22.65 -1.8 -23.35 -1.0 -25.1 -0.95 L-26.3 -1.1 Q-26.95 -1.25 -27.45 -1.8 -28.0 -2.3 -28.15 -3.4 L-26.05 -3.4 Q-25.95 -2.6 -25.05 -2.7 -24.15 -2.65 -24.1 -3.2 L-24.3 -3.55 -25.45 -4.0 Q-26.6 -4.25 -27.3 -4.75 -28.05 -5.25 -28.05 -6.25 -28.05 -7.35 -27.25 -8.0 -26.5 -8.65 -25.15 -8.65 L-24.05 -8.5 M-16.8 -1.1 L-18.95 -1.1 -18.95 -3.9 -21.45 -8.5 -19.15 -8.5 -17.9 -5.9 -16.6 -8.5 -14.3 -8.5 -16.8 -3.9 -16.8 -1.1 M-0.8 -8.5 L-0.8 -1.1 -2.95 -1.1 -2.95 -8.5 -0.8 -8.5 M-8.4 -1.1 L-10.95 -8.5 -8.8 -8.5 -7.35 -3.4 -5.9 -8.5 -3.75 -8.5 -6.25 -1.1 -8.4 -1.1" fill="#ffff99" fill-rule="evenodd" stroke="none"/>
  </g>
</svg>
