<?xml version="1.0" encoding="UTF-8" standalone="no"?>
<svg xmlns:ffdec="https://www.free-decompiler.com/flash" xmlns:xlink="http://www.w3.org/1999/xlink" ffdec:objectType="shape" height="11.0px" width="161.95px" xmlns="http://www.w3.org/2000/svg">
  <g transform="matrix(1.0, 0.0, 0.0, 1.0, 82.3, 10.3)">
    <path d="M8.55 -8.5 L11.1 -1.1 9.05 -1.1 8.8 -2.1 6.2 -2.1 5.95 -1.1 3.9 -1.1 6.45 -8.5 8.55 -8.5 M3.3 -8.5 L3.3 -4.05 Q3.25 -2.7 2.7 -2.0 2.1 -1.35 1.3 -1.15 L-0.15 -0.95 -1.75 -1.15 Q-2.55 -1.4 -3.1 -2.1 -3.6 -2.75 -3.65 -4.05 L-3.65 -8.5 -1.55 -8.5 -1.55 -3.95 Q-1.5 -3.15 -1.0 -2.9 L-0.2 -2.7 0.65 -2.9 Q1.15 -3.15 1.2 -3.95 L1.2 -8.5 3.3 -8.5 M8.4 -3.5 L7.5 -6.5 6.65 -3.5 8.4 -3.5 M15.5 -6.85 L13.85 -6.85 13.85 -5.3 15.5 -5.3 15.95 -5.45 16.15 -6.1 15.95 -6.65 15.5 -6.85 M17.6 -7.9 Q18.25 -7.35 18.2 -6.45 18.15 -5.4 17.65 -5.0 17.1 -4.6 16.8 -4.55 L17.65 -4.3 Q18.15 -4.0 18.2 -3.0 L18.2 -2.1 18.25 -1.6 18.45 -1.25 18.45 -1.1 16.35 -1.1 Q16.2 -1.25 16.15 -1.9 L16.15 -2.7 Q16.1 -3.75 15.15 -3.75 L13.85 -3.75 13.85 -1.1 11.8 -1.1 11.8 -8.5 15.7 -8.5 Q17.0 -8.45 17.6 -7.9 M19.3 -8.5 L25.2 -8.5 25.2 -6.85 21.35 -6.85 21.35 -5.65 24.65 -5.65 24.65 -4.1 21.35 -4.1 21.35 -2.7 25.35 -2.7 25.35 -1.1 19.3 -1.1 19.3 -8.5 M29.35 -8.5 L35.25 -8.5 35.25 -6.85 31.4 -6.85 31.4 -5.65 34.7 -5.65 34.7 -4.1 31.4 -4.1 31.4 -2.7 35.4 -2.7 35.4 -1.1 29.35 -1.1 29.35 -8.5 M38.25 -8.5 L41.15 -4.15 41.1 -8.5 43.1 -8.5 43.1 -1.1 41.1 -1.1 38.2 -5.45 38.25 -1.1 36.25 -1.1 36.25 -8.5 38.25 -8.5 M49.75 -8.5 L50.8 -6.8 51.85 -8.5 54.2 -8.5 52.0 -4.95 54.4 -1.1 52.05 -1.1 50.8 -3.05 49.6 -1.1 47.2 -1.1 49.65 -4.95 47.4 -8.5 49.75 -8.5 M46.45 -1.1 L44.3 -1.1 44.3 -8.5 46.45 -8.5 46.45 -1.1 M57.8 -6.75 L57.8 -8.5 64.45 -8.5 64.45 -6.75 62.15 -6.75 62.15 -1.1 60.1 -1.1 60.1 -6.75 57.8 -6.75 M68.55 -8.65 Q70.15 -8.65 71.15 -7.55 72.15 -6.5 72.2 -4.8 72.15 -3.1 71.15 -2.0 70.15 -0.95 68.55 -0.95 67.0 -0.95 66.0 -2.0 64.95 -3.1 64.95 -4.8 64.95 -6.5 66.0 -7.55 67.0 -8.65 68.55 -8.65 M68.55 -6.9 Q67.7 -6.85 67.35 -6.15 67.0 -5.5 67.05 -4.75 67.05 -4.0 67.4 -3.35 67.75 -2.7 68.55 -2.7 69.4 -2.7 69.75 -3.35 70.1 -3.95 70.1 -4.8 70.1 -5.6 69.75 -6.25 69.4 -6.85 68.55 -6.9 M78.85 -7.8 Q79.6 -7.15 79.65 -5.85 79.65 -4.85 79.0 -4.1 78.35 -3.35 77.0 -3.3 L75.15 -3.3 75.15 -1.1 73.1 -1.1 73.1 -8.5 77.0 -8.5 Q78.05 -8.5 78.85 -7.8 M77.5 -5.9 Q77.45 -6.8 76.75 -6.85 L75.15 -6.85 75.15 -4.95 76.75 -4.95 77.3 -5.2 77.5 -5.9 M-82.3 -10.3 L-80.1 -10.3 -80.1 -8.1 -77.9 -8.1 -77.9 -5.9 -80.1 -5.9 -80.1 -8.1 -82.3 -8.1 -82.3 -10.3 M-77.9 -1.5 L-80.1 -1.5 -80.1 0.7 -82.3 0.7 -82.3 -1.5 -80.1 -1.5 -80.1 -3.7 -77.9 -3.7 -77.9 -5.85 -75.7 -5.85 -75.7 -3.65 -77.9 -3.65 -77.9 -1.5 M-65.8 -6.65 L-66.25 -6.9 -67.85 -6.9 -67.85 -5.5 -66.25 -5.5 Q-65.75 -5.55 -65.7 -6.25 L-65.8 -6.65 M-63.65 -6.55 Q-63.65 -6.05 -63.8 -5.8 L-64.15 -5.4 -64.7 -5.1 Q-63.35 -4.65 -63.35 -3.25 -63.4 -2.25 -64.05 -1.65 -64.7 -1.1 -65.6 -1.1 L-69.9 -1.1 -69.9 -8.5 -65.75 -8.5 Q-64.8 -8.45 -64.25 -7.95 -63.65 -7.45 -63.65 -6.55 M-67.85 -2.7 L-66.35 -2.7 -65.75 -2.85 -65.45 -3.5 Q-65.55 -4.3 -66.35 -4.25 L-67.85 -4.25 -67.85 -2.7 M-62.9 -1.1 L-60.35 -8.5 -58.25 -8.5 -55.7 -1.1 -57.75 -1.1 -58.0 -2.1 -60.6 -2.1 -60.85 -1.1 -62.9 -1.1 M-51.75 -8.65 L-50.5 -8.45 Q-49.85 -8.25 -49.3 -7.7 L-48.65 -6.55 -48.45 -5.7 -50.5 -5.7 Q-50.6 -6.5 -50.95 -6.7 L-51.75 -6.9 Q-53.1 -6.95 -53.05 -4.65 L-53.0 -3.95 -52.55 -3.0 Q-52.4 -2.7 -51.7 -2.7 -50.9 -2.7 -50.7 -3.15 L-50.5 -4.0 -48.45 -4.0 -48.55 -3.25 -48.95 -2.35 Q-49.3 -1.8 -49.95 -1.4 -50.65 -0.95 -51.7 -0.95 -53.2 -0.95 -54.15 -1.9 -55.15 -2.9 -55.2 -4.75 -55.15 -6.5 -54.25 -7.55 -53.3 -8.65 -51.75 -8.65 M-58.4 -3.5 L-59.3 -6.5 -60.15 -3.5 -58.4 -3.5 M-45.5 -3.3 L-45.5 -1.1 -47.6 -1.1 -47.6 -8.5 -45.5 -8.5 -45.5 -5.7 -43.0 -8.5 -40.5 -8.5 -43.15 -5.7 -40.25 -1.1 -42.8 -1.1 -44.65 -4.15 -45.5 -3.3 M-34.6 -1.1 L-34.6 -6.75 -36.9 -6.75 -36.9 -8.5 -30.25 -8.5 -30.25 -6.75 -32.55 -6.75 -32.55 -1.1 -34.6 -1.1 M-26.15 -8.65 Q-24.55 -8.65 -23.55 -7.55 -22.55 -6.5 -22.5 -4.8 -22.55 -3.1 -23.55 -2.0 -24.55 -0.95 -26.15 -0.95 -27.7 -0.95 -28.7 -2.0 -29.75 -3.1 -29.75 -4.8 -29.75 -6.5 -28.7 -7.55 -27.7 -8.65 -26.15 -8.65 M-27.3 -3.35 Q-26.95 -2.7 -26.15 -2.7 -25.3 -2.7 -24.95 -3.35 -24.6 -3.95 -24.6 -4.8 -24.6 -5.6 -24.95 -6.25 -25.3 -6.85 -26.15 -6.9 -27.0 -6.85 -27.35 -6.15 -27.7 -5.5 -27.65 -4.75 -27.65 -4.0 -27.3 -3.35 M-13.4 -7.85 Q-12.85 -7.35 -12.7 -6.35 L-14.8 -6.35 Q-14.9 -6.95 -15.65 -6.9 L-16.15 -6.85 -16.45 -6.45 -16.2 -6.15 -14.9 -5.7 Q-13.9 -5.45 -13.2 -5.0 -12.55 -4.55 -12.5 -3.45 -12.45 -2.6 -13.15 -1.8 -13.85 -1.0 -15.6 -0.95 L-16.8 -1.1 Q-17.45 -1.25 -17.95 -1.8 -18.5 -2.3 -18.65 -3.4 L-16.55 -3.4 Q-16.45 -2.6 -15.55 -2.7 -14.65 -2.65 -14.6 -3.2 L-14.8 -3.55 -15.95 -4.0 Q-17.1 -4.25 -17.8 -4.75 -18.55 -5.25 -18.55 -6.25 -18.55 -7.35 -17.75 -8.0 -17.0 -8.65 -15.65 -8.65 L-14.55 -8.5 -13.4 -7.85 M-11.75 -4.8 Q-11.75 -6.5 -10.7 -7.55 -9.7 -8.65 -8.15 -8.65 -6.55 -8.6 -5.55 -7.55 -4.55 -6.5 -4.5 -4.8 -4.55 -3.7 -4.85 -3.05 L-5.35 -2.2 -4.45 -1.25 -5.4 -0.25 -6.45 -1.35 Q-6.6 -1.25 -7.0 -1.1 L-8.15 -0.95 Q-9.7 -0.95 -10.7 -2.0 -11.75 -3.1 -11.75 -4.8 M-8.15 -6.9 Q-9.05 -6.85 -9.35 -6.15 -9.7 -5.45 -9.65 -4.75 -9.65 -4.0 -9.3 -3.35 -8.95 -2.7 -8.15 -2.7 L-7.7 -2.75 -8.6 -3.7 -7.65 -4.65 -6.75 -3.7 -6.6 -4.8 Q-6.6 -5.65 -6.95 -6.25 -7.35 -6.85 -8.15 -6.9" fill="#666666" fill-rule="evenodd" stroke="none"/>
  </g>
</svg>
