<?xml version="1.0" encoding="UTF-8" standalone="no"?>
<svg xmlns:ffdec="https://www.free-decompiler.com/flash" xmlns:xlink="http://www.w3.org/1999/xlink" ffdec:objectType="shape" height="52.0px" width="43.0px" xmlns="http://www.w3.org/2000/svg">
  <g transform="matrix(1.0, 0.0, 0.0, 1.0, 21.5, 26.0)">
    <path d="M18.65 -23.15 Q21.0 -20.8 21.0 -17.5 L21.0 17.5 Q21.0 20.8 18.65 23.15 16.3 25.5 13.0 25.5 L-13.0 25.5 Q-16.3 25.5 -18.65 23.15 -21.0 20.8 -21.0 17.5 L-21.0 -17.5 Q-21.0 -20.8 -18.65 -23.15 -16.3 -25.5 -13.0 -25.5 L13.0 -25.5 Q16.3 -25.5 18.65 -23.15" fill="#de85b3" fill-rule="evenodd" stroke="none"/>
    <path d="M18.65 -23.15 Q16.3 -25.5 13.0 -25.5 L-13.0 -25.5 Q-16.3 -25.5 -18.65 -23.15 -21.0 -20.8 -21.0 -17.5 L-21.0 17.5 Q-21.0 20.8 -18.65 23.15 -16.3 25.5 -13.0 25.5 L13.0 25.5 Q16.3 25.5 18.65 23.15 21.0 20.8 21.0 17.5 L21.0 -17.5 Q21.0 -20.8 18.65 -23.15 Z" fill="none" stroke="#66ffff" stroke-linecap="round" stroke-linejoin="round" stroke-width="1.0"/>
  </g>
</svg>
