<?xml version="1.0" encoding="UTF-8" standalone="no"?>
<svg xmlns:ffdec="https://www.free-decompiler.com/flash" xmlns:xlink="http://www.w3.org/1999/xlink" ffdec:objectType="shape" height="80.0px" width="40.05px" xmlns="http://www.w3.org/2000/svg">
  <g transform="matrix(1.0, 0.0, 0.0, 1.0, 19.35, 40.0)">
    <path d="M19.3 -39.7 Q20.7 -38.85 20.7 -34.0 L19.7 31.0 19.6 31.8 Q16.3 33.65 12.6 34.7 L12.55 34.7 Q12.2 36.1 12.5 37.35 6.2 40.0 -0.3 40.0 -5.7 40.0 -10.15 38.6 L-10.15 36.95 -11.15 36.95 -11.15 36.15 -11.8 36.15 -11.8 36.0 Q-12.75 36.15 -13.4 35.6 L-19.1 30.3 -19.2 30.1 -19.35 29.8 -19.35 -37.1 Q-17.8 -40.0 -14.3 -40.0 L14.7 -40.0 19.3 -39.7" fill="#ffffff" fill-opacity="0.101960786" fill-rule="evenodd" stroke="none"/>
  </g>
</svg>
